<mxfile host="65bd71144e">
    <diagram id="jLb0KrBNNBmZWNRVcdQy" name="Page-1">
        <mxGraphModel dx="1693" dy="1390" grid="1" gridSize="10" guides="1" tooltips="1" connect="1" arrows="1" fold="1" page="1" pageScale="1" pageWidth="827" pageHeight="1169" math="0" shadow="0">
            <root>
                <mxCell id="0"/>
                <mxCell id="1" parent="0"/>
                <mxCell id="2" value="" style="rounded=0;whiteSpace=wrap;html=1;" vertex="1" parent="1">
                    <mxGeometry x="110" y="70" width="190" height="180" as="geometry"/>
                </mxCell>
                <mxCell id="3" value="" style="whiteSpace=wrap;html=1;aspect=fixed;" vertex="1" parent="1">
                    <mxGeometry x="110" y="480" width="180" height="180" as="geometry"/>
                </mxCell>
                <mxCell id="7" value="" style="shape=image;verticalLabelPosition=bottom;labelBackgroundColor=#ffffff;verticalAlign=top;aspect=fixed;imageAspect=0;image=data:image/png,iVBORw0KGgoAAAANSUhEUgAAAvMAAAJBCAYAAADLBzqpAAAgAElEQVR4Aey9DaxV1Z3/TWJMMzHGaWIatVbJJB0HB7lPIxFFngoqodQqtUyBW/0jtcijMoK8lFGxylCGv0WE+kdwdHwo2KLgtRbaYa6GcMvDi1qpoK0gQisEBCmI5IZexCtkPfku+zusvc7e++yXtffZ+5zvSg77bb381mdtzvnu3/2ttXsoJhIgARIgARIgARIgARIggVIS6FFKq2k0CZAACZAACZAACZAACZCASizmu7u71alTp1IjRB0nT55MXQ8rIAESIAESIAESIAESIIFmIxBbzC9atEj169dP/eM//qPq1auXam1tVdu3b0/Mbdy4cWrMmDGRy7/55pu67WnTpkUuw4wkQAIkQAIkQAIkQAIk0IgEYon5+++/XwvpESNGqGXLlqk5c+aolpYW1adPH7Vz587YfGbPnq3riyrmjx07pgYOHEgxH5s0C5AACZAACZAACZAACTQigchifsuWLVpEjx492sMB5+GhHzlypOd82AFE+T333KPrg4c/qpifMmVKpQw982GEeY0ESIAESIAESIAESKAZCEQW8+KV37x5cxWX8ePHa5G9a9euqmv2ifb2dtW/f3+dH4I8qphfvXq1zjt16tRKWbtuHpMACZAACZAACZAACZBAMxGILOYHDRqkLr30Ut9Jr8uXL9cCu62trSY7CP/rrrtOrV27VueNIuYPHjyo+vbtq735mzZtopivSZkZSIAESIAESIAESIAEmoFAJDGPFWcQSoN4db8EYQ5RPn36dL/LnnPvvPOO54Egipi/9dZb1VVXXaWOHj2qKOY9OHlAAiRAAiRAAiRAAiTQxAQiifnjx49rsT527FhfVBs2bNDXEQITN9US888884yue/369bpqivm4hJmfBEiABEiABEiABEigUQlEEvNdXV1aUGMZSb8kAnvSpEl+l0PPhYl5rJCD0J6HH364Uoe0FXcCLNrhhwx4D/Ae4D3Ae4D3AO8B3gO8B+p9D1SErYOdSGJePPNBYl4881htJm4CTL/VbPBSqqFDh6rBgwerEydOVKpNI+YrlXAnNQGMG5NbAmTqlidqI1MydU/AbY28R93yRG1kSqbuCbit0fU9GknMI2YeDQ8ZMsS3Nx0dHfp6lJh5uwLU6yfmH330UV3nggUL1Lp16yofvLQKZbBEJs5HfWGVa3B2P5rtmDzdjziZkql7Au5r5H3qlil5uuWJ2siUTN0TcFuj63s0kphHF7CcZO/evX17s3LlSv2fBy+SipvQIT8xL8td4nrYJ2poj2twcfvZaPnJ0/2IkimZuifgvkbep26ZkqdbnqiNTMnUPQG3Nbq+RyOLeYhmNO63lrys/Y4XSMVNqNNPzP/ud79TeEiwP+Kxb21t1df81r33s8E1OL82mukcebofbTIlU/cE3NfI+9QtU/J0yxO1kSmZuifgtkbX92hkMS+hNPfdd5+nRwcOHFAtLS06tt1zQSmFibP4hCV0yE/MB5VhzHwQmXzPu74R87W+mK2RqftxIVMydU/AbY28R93yRG1kSqbuCbit0fU9GlnMoxtY7x0GwBMPcf/iiy+qAQMG6HOIXzcTJrAiby2DcZ1i3iRXjv1a41qOXhTLSjJ1Px5kSqbuCbitkfeoW56ojUzJ1D0BtzW6vkdjifnOzk6FFWtghHwQS9/e3l7VS4r5KiQ8QQIkQAIkQAIkQAIk0OQE6irmhf2xY8f0m1h37Nghpwq/dQ2u8B2mgSRAAiRAAiRAAiRAAoUj4FqTxvLMF45GDINcg4vRNLOSAAmQAAmQAAmQAAmQgCbgWpNSzPPGIgESIAESIAESIAESIIGcCFDMJwTtGlxCM1iMBEiABEiABEiABEigiQm41qT0zDfxzcSukwAJkAAJkAAJkAAJ5EuAYj4hb9fgEprBYiRAAiRQVwLdf9mrPloxV+196DvqveHnq/fvvELvf7hgoursWFFX29g4CZAACTQDAdealJ75Zrhr2EcSIIGmJwARLwIeIj7oA3EPsc9EAiRAAiSQDQGK+YRcXYNLaAaLkQAJkEDuBOBxDxLvQech6plIgARIgATcE3CtSemZdz9GrJEESIAECkMgiZAXgd+Igh4/ovyQAe8B3gNp74E0X/Jo22WimHdJk3WRAAmQQIEIdL2zydcjL6E0uI4PBD9i5kXEY7vrtgvUnmkXqoNPXqVO7G1T3YdfK1DPkpvi+kc0uSUsSQIkUFYCab9H0pa3uVHM20R4TAIkQAINQgCi3RTo2A+Lhz+x51W1b+aF6siqnoGfv26Zqk517SstIdc/oqUFQcNJgAQSE0j7PZK2vG04xbxNhMckQAIk0AAE/MJr4IUPSsd3zA8U8La4P7pmgIKoL2Ny/SNaRga0mQRIIB2BtN8jacvb1lPM20R4TAIkQAINQMD2yiOMJihBmNuCPcoxRH3Zkusf0bL1n/aSAAmkJ5D2eyRtebsHFPM2ER6TAAmQQAMQsMNrTK/87iOfqBkvv68/76wdHyjkDy27WO2f9xV18KmLAvOUTdC7/hFtgFuFXSABEohJIO33SNrytrkU8zYRHpMACZBAyQlgTXlbzIuA7zF5rZLP1TMX+Yr07a/+76o16T9e/ZhCKA7Eu+21xwTZsiTXP6Jl6TftJAEScEcg7fdI2vJ2TyjmbSI8JgESIIGSE4AX3hbzIuDN7a+XDqkS5hD4PWdtUs/fe5unDpk4i8mvtqAvk3fe9Y9oyW8Vmk8CJJCAQNrvkbTlbZMp5m0iPCYBEiCBkhPw88ybIh77fl751jkzK177jpGXecQ8JtRKgqAvq3fe9Y+oMOGWBEigeQik/R5JW94mTTFvE+ExCZAACTQAAdszf8XdT1SEOsQ8hLspyLeu6Ou5bpfHA4KZOjeO8pTHcRmS6x/RMvQ5qY0LFy5U99xzT9LiutxHH32UqnzWhR9//HE1adKkrJuJVD9sScvbbujUqVNqyZIlasyYMfrz1FNPqU8++cTOppBv+fLlauzYsWr06NHqgQceUH/84x+r8gWdcHGvBNXtdz7JfeXSxrTfI2nL20wo5m0iPCYBEiCBBiCw4V+/6fGs//yWa7VYx8RXxM/bK9hgIiyuQej/6+3jPWUh7Hfu2OmhgpdImQ8DZQm1cf0j6oHSYAc333yzOvvssxP16t1331X//M//rNasWZOofF6FbrjhBnXuuefm1VxoO7AlKW+/ijs7O9WVV16pevToobfXX3+9OuOMM9RFF12kPvjgg0qRjz/+WF1++eU6H7bDhg1TX/ziF/UxBHCUlOZeiVK/5ElzX7m0Me33SNrywkO2FPNCglsSIAESaBACAxe+qeCJt73rv39yVqWHtmddJrFuX7+2qtwjt43QcfR4CJBEMS8kGnf7+uuvq9/85jeJOvjss89qMUgxHx3fq6++mpi3Xyv4iwOEPDzukn7/+9+rM888U914441ySo0bN07nW7VqVeXcsWPH1Ne//nV9ftu2bZXzQTsuhXJQGzif5r5Kcz/bNqUV42nL2/ZQzNtEeEwCJEACJSYAIS/x8fDG24JeJrLaYh4r1eCanR/HX56wXNeJibGSbDEPL30Zkusf0TL0OSsbEZqBj1+KIro+++wzv6Kec0H1I1OU8siHOoLyhnnmw8p5jPzbwaeffup3uupckC1VGa0TUeuXYl/60pfUFVdcIYeVLYQ3BD0S+viFL3xBDRkypHJddlavXq3F/COPPCKnArdxxXzQuNZiHuW+Qh1B9Qd2IMb9hDrSfo+kLW/3g2LeJsJjEiABEigpgd/+6eOKkIeg9/POQ5zjhVIHn7zKEyaDteT9hDxCbuThANsxz2/XdODJN8Nsyh4zD3boW7N9fvbGgcC7HbHTPXuefkgbNWqUwgfe9ssuu0wLPYRtDBw4UO3atatSD+KuES4CrzC2Zh2Iw5ZwD1yH4HzooYc8YhttoO0nn3xSi86/+7u/095laR8eZISKoDyEKOLMEVJip40bN2rvMmw02zJFsZ+Yj1JO2vrFL36hWlpadPgK2hAeb7/9tmTRW3jEr7322kq+8847T82ePduTB/0zWeFi1Po9FRkHfvHx/fv3V2eddZbOhQeLX/7yl2r9+vVGqc93Mc7oE+LnayU/MY85AAhhGj9+vC4eNK64GIV50H0l90Wt+9K+n9FulPvRr+9pxXja8rZNFPM2ER6TAAmQQAkJIATGFN2yv+q//tNXpO+ZdqFHjOMFUbaYx1tj4Y2XumQLASie/d1L+6i3f3q1jsEvA7agH1GZLyB9bJYt+h2UbIEG4fsP//APWggihOO5557TQhqC76tf/Wqlmo6ODnX77bdrIThlyhQ9ARMXIWhF3GMi5q9+9SuF6yiPOG1JaKdXr15ayA8fPlxBfG7dulXh/IUXXqjPw1sMz/GsWbN0+QEDvG8jfuWVV7Rwhr1oC4IVYhBtQVRLssV81HIoj3hy1Dd06FD9sIE2/u3f/k3bBzvFO/zGG2/ohw4I9WeeeUbbAgGKsg8++KCYovtnxsxHrb9SQY0dCPsZM2bodmfOnFkjt9ITg2EjxrNWsu8VsR33gaSgcY3KPOi+Qr1R7kvbxqj3o9hvboO+R8w8Yftpy9t1U8zbRHhMAiRAAiUkYIbXiBCFtxkJy0raQn3XbRd4xDy87Hjbq+SDkEeyHxL+/u529b9G/R8195oZ6qGWeZ7PvKHPqJd+9LI6ur/aS6orK8A/QT+iFPPVg2OLH4gmiDuIeDNJzDXEkSS/cAhMxsTEyoMHD0o2vYUwR73t7e36WNqB8DWTnIc4N9Ojjz6qy0NMS4Jwhvf70KFDckpvIWLRFlZ4QUKd5gTYqOVQFn8dwCRfO02cOFG3ARGPhIeRc845p6rfiElHuIuE3cAWU8xHrd9u3+/4u9/9buWvAtivlSCwwQl/dYmSzHsFf1FBWdwXZpLxs8c1DnO/+0rqrXVfmjbCrqj3o9kH2Q/6HpHrtbZpy9v1U8zbRHhMAiRAAiUjAE+5CHjZQtybyW/teYh3M1QG+/tmXqhj582yUv81317mEe+2mJfjIov6oB9RinlzxD/ft8UPRBPCSMTjLCUgjCHe4CmXZIsuiGrkwRKJdsJkS/OatCMiV/LjPEJu7Pal/Pe+9z2dFSIa9cFLbqeuri7dB3j8kVCniPk45VAWdviF98hfCxD2AW84bEGIh50QmvTnP/+5chq2mGI+Sv2VwjV28AAEsXvrrbdqezAB1uYoVUDIgzNEtv3gJXnsrdwraAf9ldAaM5/fuMZlbt9XqF/qtftj35diI8rEuR/NPsh+0PeIXK+1TVverp9i3ibCYxIgARIoEQHbcw4xb05Ula74eef3zxleJeYh6LHMJCa4mumhm5+NJORF0GMLUV80L33QjygeWJotXh79lb/emGMt+6b4wTlbbEo+EVhhYl4mUyLGHeLZ/kAAygorQe3gvBkiI+1jixhwXEd64YUXtKDE1i/hrwMI40FCGRHzccpJvYiNR8w/wmYQ6oP+oS/4QMxL3Dnix2slv37Xqr9WnX7XEQMP++BBtxPGEg9sCJs6cOD0fArE1MM+84OHFkm4V6Tf2GJehJ38+heXudxr4CrJr15ck7xyX5r3c5z7Udoxt0HfI2aesP205e26KeZtIjwmARIggRIRgCATb7xs/QQaJr1KCA22EkZjT2S1PfUQ9k8PmxxbyIuoL5qgd/0jWqJbJbappvhB4aiiCXlFSInoEvEEzzDiqf0+IrqC2sF5fPySn5g3w27MMhDzl1xyiT6F+mwxH6UcCkvIDtoGq7vuukvHzmNiq4h5CVexQ4NMe2Tf7neU+qVsnK14peUvGVJW5i8g/Adrz5sJTPBXA/NjlhcxjwcFeViww2ns/qF+EfNRmdv3FerwqxfnJa/cV+b9HOd+NDnIftrvkbTlxQ7ZUswLCW5JgARIoGQEINpFwMsW4t5OXe9s8gh5iHmckxQm6JePucNXyK++d6Sa/ZO79IumUA888B1Pvqq98SLkZbv4B/4eUmk/z63rH9E8bc+7LVP8oO2oogl5RUiJmMfLfiBw/cIvkN9cdSWoHZxHHLydEDqDukVcrlu3Th/bq8WgHEJ34HlG35BQp4j5OOUQIoM2EQ9vro6DOmWSKfqOMBXkMyeC6oaVUggxgWCXFziZ/Y5av9Rlb9Eu/lqAhyY74e2pJi9cl8nBYGiHN9nl/Y7NewU84NmH8Je+oYzZP6kjDnOUse+roHrNvH5iPs79KLaa27TfI2nLm7Zgn2LeJsJjEiABEigJAb9Jr36mwwtveuWxb6cjv7q6KuQGK9WIIJctJr7+90+GqWmPT9APEgjpMV8mBVEP8S75Zbt78z67ybocu/4RrUsncmrUFGho0k+M4bwILBFN5jl4piXJREfb64sXU0Fc/vCHP9RZg9rBeeSzl1FECAvOi3cXsdNY8hLed1toy+RMTJpFQp0i5uOUE5v91mDHUpWwR3ggpAer25gPLGgbcfR4sJBwFrPfcerXHbH+QV/QL6zyYotzmXAsYTbylwT8ZSFpsu8VLDUJBma4jdk/aScOc5SRe828r/zqNfPKONg2Rr0fxVZzm/Z7JG150xbsU8zbRHhMAiRAAiUgIJNSxSOPLc75paAQG8kb5Jn388pjGcrWOTM9fxGw/xrgJ+iL4p13/SMqDBtxa4ufqKIJLPDWUYg5rJwCAYaE9eFxDmvUYx+r3yAUA2EvEN8y2TKoHZxHeeTF+utYrhJCHnHqCA0xk0x+xHmIOcSeP/bYYzovxLUIa9QpYh7lo5aDAEe7EOl4cyseGrCFeMXkUdgpb8+VfmNlGIhQ9Btx9shjCmiz33HqN/tt7stkVNSLByB4o2VyLl4mBZEP5hLnj4cLv8/ixYvNan337XsFmWSVIwm3MftnVhKVOcr43VdB9YrwDxLzMi617kfTVtlP+z2StrzYIVuKeSHBLQmQAAmUiIDtlfeb9Iru+IXYYGUbM8ma8RIvL2vO/+Tyhz0edoTWIM+vlw7xiHnbO4+64YkXr7xsizAZ1vWPqMmx0fZtgRZVNIEDVnm5/PLLtWCFaBUPOQQUPKI4Jx8sEbht27YKvqB25DwEKZZ0RHl4thGHb3v7URlWb4HYlnaQF2LVXK4SdZpiPmo55MM6+Sgr9cMmLEspK7SYa8gjNty0BXkRow7PtCTpnxzHqV/K2FuE2Zg2ggFWFBJeYCT2B20RglMr2fcK8mOVoQsuuECH2+zduzfwLzvIG2WskM/vvrK5ia21xDzyRbkfpT5zm/Z7JG150xbsU8zbRHhMAiRAAgUnEMcrXyvEBqvWiIiXLV4ohVAcEeGyRdgN8mxd0VeLeaw5j+UqRw98Wk1c/FYVNSkn2yKE2rj+Ea3qNE94CEDE22EeyADPM14CJKLSUyjgwBRtqBfx1oiXr5Ww/CM80/JAUSu/XI9SDmIcXn/8lcAU5lKHvUWdCEHxY4L+YT16M8Wt3ywr+6gD9oFXXAZSR17bKMxhS9B9ldTOuPdj2u+RtOXtflLM20R4TAIkQAIFJxDVK49u1Aqxsb3yEOsQ8uu/eUWVmBexj+34R//Tcx2r1pix82jbjp3fuuq097VeiF3/iNarH83YrinmG7H/mEyLF0UxFZ9A2u+RtOVtQhTzNhEekwAJkECBCfh55f2WokQX/NaWN0NswrzytpjHxFcR8/DQ+70B9uFFn7/xUvDhbbDilceWYl7IcJuEQKOKecT/IyQHITCyIk8SPiyTH4G0YjxtebunFPM2ER6TAAmQQIEJxPHK1wqx+euWqRWBLkL9oxVztWd+y03/5BHiEOOSx2/d+ZbWtqqXVcFbTzFf4JupZKZhyUd5c2vJTA81Fw8pmISKOQaILWcqPoG0YjxteZsQxbxNhMckQAIkUFACfuvKB61ggy7YITbw1Es61bWvIs5FpB/fMd8zYdYU4tjfMGOo7wukEDMvq+rMePl93QQnwAppbkmABBqNQFoxnra8zZNi3ibCYxIgARIoKAG/t70GmVorxMbPKy917X3oO9o7v/DKSR7Pui3ucTyh3xMVIQ9BL6vq2PHyyFuE5PpHtAh9og0kQAL5Ekj7PZK2vN1binmbCI9JgARIoKAExPst2zCvvB1iA4FuJvHGyxZeeUkSauPnXbcF/W9f2ekR87Bt3viVVQ8BRYiXR/9c/4gKM25JgASah0Da75G05W3SFPM2ER6TAAmQQAEJIHxFRLxsw8wMC7Hx88oj7MYv+XnYRdD/8emRuojE8WOpSoTcyHXZIna+KMn1j2hR+kU7SIAE8iOQ9nskbXm7pxTzNhEekwAJkEABCSB8RUQ8tvZbV8NMxlKT5io24o2XLcR9UArzzmNFG6xYA0+8n4gXMV+E9eWlf65/RKXeuFuEQeEvIPgLCv5qgi0+5ryGuHUyPwmQQD4E0n6PpC1v95Ji3ibCYxIgARIoGIE4y1HWMh3hNCLiZRvklUddYZ55Eeth2yIJefTH9Y9oLd72dQh4+68meNgyP7iOfEwkQALFJJD2eyRteZsKxbxNhMckQAIkUDACEsYinnkcp00i5MO88mmEPCbGFk3Ig5nrH9Go44C/jMjEYlO4h+1D1Jt/UYnaFvORAAlkSyDt90ja8nbvKOZtIjwmARIggYIREBEv27CJr3FND/LK+wl5nPv986/4vjBKvPMQ8dd8e5kOCXJpZ9x+BeV3/SMa1I55PomQF5FPQW+S5D4JFINA2u+RtOVtConFfHd3tzp16pRdX+xj1HHy5MlI5ZAval67Qtfg7Pp5TAIkQAJZEIizHKXr9kWgYyuTWCH+j+7v1B+sUINPx5Ov6u1ts9Z74vpd/AXBdZ/q8VsQ5JGXcBrEyeNjr0BkCnrXHBqlvg8++ECNGjVKffbZZ43SJfajBATSfo+kLW8jii3mFy1apPr166f/VNmrVy/V2tqqtm/fbtcb+XjcuHFqzJgxgfkPHz6spk+frvr06aPbBIDrrrtOLV68OLCM3wXX4Pza4DkSIAEScE0gzcRXF7aIoI8SMuP3UiucK1LK+7cAIl1EuWzDvO3w4uO65JUthD6Tl0BXV5caMGCA6tGjh/r000+9F3lEAhkSSPs9kra83bVYYv7+++/XgnrEiBFq2bJlas6cOaqlpUUL7Z07d9p11zyePXu2ri9IzB85ckT/R0WnIfqfe+45tWDBAjVkyBBdDvZETa7BRW2X+UiABEggKQG/ia+7j3yStLrE5aIIeVQO2+z4/jir7iQ2MEbBvH8LbGGO41rJLywnSrla9TbSdXjkr7zySi3kKeYbaWTL0Ze03yNpy9uUIov5LVu2aAE9evRoTx04Dw/9yJGfrzfsuRhwcOzYMXXPPffo+tChIDH/4x//WOdZuHChpyY8jX/rW9/S19566y3PtaAD1+CC2uF5EiABEnBFwA6xKWLYit1Xez18eSOsna9ex3n+Fvh55bve2RSp6xD04pWXbb1XuAkKZQk6H6mjCTLNnz9fnXPOOeqLX/yidihSzCeAyCKpCKT9Hklb3jY+spgXr/zmzZvtOtT48eO1sN61a1fVNftEe3u76t+/v84/bdo0vQ0S8/jzWe/evX1j81988UVdFp76KMk1uChtMg8JkAAJpCEgE15lW8QJpXb/4J0Xe2VbpFCboN8CiGxZ6z3J1uaAYzsGPixUxq9NEfGyhXfeL19QvUF5zfN44AhKiEXHZ82aNeqSSy7RXvAzzzxT3XXXXbrIs88+qy644AJ9/qyzzlIzZ84MqqpyHo68sWPHhn4qmQN2zj77bDV8+HAF7zzqopgPAMXTmREI+h6J2mDa8nY7kcX8oEGD1KWXXuorrJcvX66FdVtbm11/1TGEP2Le165dq6+hQ0FiHnlWr15dVQdOrFy5Urc5b9483+v2Sdfg7Pp5TAIkQAIuCRQlxCZJn+xQmyL9RSHotwBebxHNSbZ+nCCazbrChLOZL8m+X/tR6gnz9t9www2qZ8+eCuL5wQcf1KGu119/vRbPN954ozrvvPPUo48+qpYsWaIuu+wyfR7CPyyhLojvsE9YeVx79913K1ko5isouJMjgaDvkagmpC1vtxNJzGPFGYTSDBw40C6vjyG6YRgmqtZK77zzjueBAOWCxHxYXSiDsuvXrw/LVrnmGlylYu6QAAmQQAYEbEFctNjzsC7Lg8jf392uvfRFCrUJ+i3IQszb8fJlFPMQ3ZivJglhsmeccYYW4++9956cVtu2bdPn4LDLM1HM50mbbQmBoO8RuV5rm7a8XX8kMX/8+HEtnPGfxi9t2LBBX586NfiV4H7lcA4diivmJcTmpptuCqq26rxrcFUN8AQJkAAJOCQgISqyLUOIjax8I9uLv7+qEnJTlFCboN+CLMS8vSRlmBc8ihc9LI/frReWX66F2QTPPIS7vQw14tWx+IWZsJoMhH/c33OzjiT7FPNJqLFMWgJB3yNR601b3m4nkpjHhFM0jBVl/NKmTZv09UmTJvldDj2HeuP858dfARDu07dvX7V3797Qus2LaCfoY+bjPgmQAAnUm4B4tkXIY1uGZL9oSl4eBfuLEmqD3wG/BK+5GUsed9+vTvsBAeI+KPm1Z3v2s4iZD5uQCzGPsBg7nXvuuQrXzCRi3l4kw8yDfXj5EWsf9rHLhB1TzIfR4bWsCAR9j9jtBenOqOXt+oKOI4l58cwHiXnxzE+ZMiWoncDz6FBUMY+YfOTHOvd/+MMfAuv0u+AanF8bPEcCJEACLggUOcRGPLoQlnbCy6PEK48t3gYrDyRFCbXJ87cADwjCC1swCxPPNk+zLPbDvOh2WRfHWYh5FzHzZt8o5k0a3M+LQNrvkbTl7X5GEvP4Exsaxvrufqmjo0NfjxIzb5dHvVHE/KxZs3QbX//619Wf//xnu5qax67B1WyQGUiABEggIQERwLItQoiK31KJtjDFevSmmMe+9AHbIoQK5flb4McMHvgoyQ7RgZhHfXmmLMQ8Yu5rfeL0kWI+Di3mddzK9hcAACAASURBVEUg7fdI2vJ2PyKJeRTCcpJYJtIvycoyeJFU3IQOhYn5kydPqjvvvFML+X/5l39ReJFUkuQaXBIbWIYESIAEahGIG2Jje39r1Z/mui0w7bCRo/s7q8S8GTdfhFCbvH8L7PGBKIegDxLmOG9zljJpxi5J2SzEfBI7wspQzIfR4bWsCKT9Hklb3u5XZDGPeHg07reWPCa+4hpeIBU3oVyYmEdoD/JA0J84cSJu9ZX8qIOJBEiABIpOIG6IjS38IBQ7N47y7SZi2tMkW5j6hdqExc0XIdQm798CiHNwgiA3PziHsBkwxV848LFj7M38QeI/zXjWKksxX4sQrzcrgbTfI2nL29wji3kJpbnvvvs8dRw4cEDPah88eLDnPA4wcRafsIQOBYn5RYsWaSEfFKsfVq99zTU4u34ekwAJkIALAmZYCvZrhdiYgg/7H69+TB1Z1bPyEZtMkS3n4m4hKO327FAbO25+9MCnPaE2tfoT16a4+evxWxAk6G2WQcc247h9TpqfYj4pOZZrdAJpv0fSlrf5RhbzKHjrrbdqcQ1PPMQ9lojEW1ph1Lp16zx1d3d36/O1DMZ1PzF/9OhRHdaD6yNGjNAr6UDU25+lS5d62g06qGVHUDmeJwESIIG8CKQNsYEY/OuWqRUhL6LeFtiIZU+a7L8E2KE2dty8OQkWDyf1DrWp129BUkFfLyGf9P5gORJoBgJpv0fSlrcZxxLznZ2dCivWwAj5IJa+vb3drlelFfN4i5y0EbaNOukWdTCRAAmQQJEJpA2x2T9neJWQ3/6LKVVx7BDzEN1JUlioDR4edi/tU9WeGTdf71Cbev4WQNCHhdKYnnnkQ34mEiCB4hFI+z2StrxNJJaYl8KYiY615Xfs2CGnCr91Da7wHaaBJEACpSNgh9jUWv3FFH/Y3z/vKx4x//ZPr64S1mmEPIBCYNrtHnzqIk+7Tw+b7GnXXG8+SuhQlgNXhN8CEfWY3yB/6UAMPfYp4rMcfdZNAm4IpP0eSVve7kUiMW9XUoZj1+DK0GfaSAIkUB4CLkJsJKwmyEMOIY+Qm7RJBKiI+n0zL/SI+dX3jvSIeTtuvp6hNvwtSDv6LE8CJJD2eyRteXsEKOZtIjwmARIggToQGPP8ds9EURyHJVtQ21552zsOIZ92NRuxB3HcIuSx3XXbBR4xb/9FwI6br2eojesfUWHCLQmQQPMQSPs9kra8TZpi3ibCYxIgARKoA4G0ITamVz5LIQ80tUJtasXN1zPUxvWPaB1uFTZJAiRQZwJpv0fSlre7TzFvE+ExCZAACeRMwC/EZveRTwKtsCehmmEuy8fc4QlxgUd+3tBnAutKesH+y0DcuPlaf3lIaletcq5/RGu1x+skQAKNRyDt90ja8jZRinmbCI9JgARIIGcCaUNsxCu/YcZQXyGfdOWaMAx2qM37d3/ZE2pj/3XAjpuvV6iN6x/RMEa8RgIk0JgE0n6PpC1vU6WYt4nwmARIgARyJgBha4bZxFnFZs+0zyef2nHq8Mjjk4WQBx471MaOmzcfLJAff2kw+1ivUBvXP6JJbpVTXfvU8R3z9Zt68bZePIwdXTNAvyMA7wnAdSYSIIHiEkj7PZK2vE2GYt4mwmMSIAESyJFA2hCbQ8suVnkLecFTK9QGgtVM9jr6M15+37ycy77rH9E4RouIl7+kBG1F2FPUx6HLvCSQH4G03yNpy9s9pZi3ifCYBEiABHIkAEFre6zDmsd65LKSjHjlxQtvbl0sQRlmB66ZoTY4hng3BSpEqZnsvtZjiUrXP6Jm/8L2IcxNNlH2wa/78Gth1fIaCZBAHQik/R5JW97uMsW8TYTHJEACJJAjATvEptbEUBHy2MIrb4pCEfOulqCMiwHC07QH+2b67Z8+jvXgYpZ1te/6RzSKXUmEvHCkoK8mvHHjRvXss8/6fg4ePFhdgGdIwDGBtN8jacvb3aGYt4nwmARIgARyJGB75SF4oyTxyovowxZiul5CHjb7iVbTs1yEuHnXP6JRxsocI3Mff8k4sbdNjxu29l82JC8EPUNuTpMeMmSI6tGjh+9n/fr1pzNyjwQyIpD2eyRtebtbFPM2ER6TAAmQQE4E/OLl4zYtgg8TKYuQZEJnkF123HzeoTauf0RrMfcT6GFjBdHuVwYTY5k+J/CFL3xBQdBDuNufY8eOERMJZE4g7fdI2vJ2BynmbSI8JgESIIGcCMRdkjIns1I1Aw+zCHls7bh5+wEm7yUqXf+I1oJlssB+mJCXuvwEfRHCbT777DMx0bMNOu/J5Ohgz5492iM/f753crWj6lkNCUQikPZ7JG1520iKeZsIj0mABEggJwJ2vHytJSlzMitVM0UPtXH9IxoGy36wgZiPGi7jxxEe+zzTqFGjFD5r1qxRl1xyiRbRZ555prrrrru0GYhbv+CCC/T5s846S82cObOmeffcc48aO3Zs6Ceskl/+8pe6vdWrV4dl4zUSyJRA2u+RtOXtzlHM20R4TAIkQAI5ELA91IidD3vraw4mOWvCDrWxK7ZDbfJcojLoRxSx/QhlSfqx+4hj1GV65sNCZfzahTfeLI9jv3xB9QblNc/jgSMo3XDDDapnz57q7LPPVg8++KB67rnn1PXXX6/F9I033qjOO+889eijj6olS5aoyy67TJ+H8A9LqCso3l3Oh5WHHcg3a9Ys9dWvflWdccYZ6ktf+pL64Q9/qBhiE0aO11wSCPoeidpG2vJ2OxTzNhEekwAJkEAOBOxlGvMON8mhi4FN2H3PM24+6EfUL07dFNK19v06C9FslgsTzma+JPt+7UepJ8zbDzEP4QwRLwmCGQIa59977z05rbZt26bPjR8/vnIui52bb75Zt3PRRRfpBwyE2wwYMECf69+/vzp16lQWzbJOEvAQCPoe8WQKOUhb3q6aYt4mwmMSIAESyIGAHWJTa0nKHEzKrQl7ico8H2SCfkSzEPP2XyjKKOYh3G2BfM4556iWlhbP/fLpp59qQT1mzBjPedcHEydOVGijs7PTUzVCf/CAsWDBAs95HpBAFgSCvkeitpW2vN0OxbxNhMckQAIkkAOBpEtS5mBa5k3Uc4nKoB/RPMR8mBc8ihc9LI/foIXll2thNsEzj7AYO5177rkK18wkYn706NHm6ap9ePmD1oiX81WFIpw4dOiQFvPw3DORQNYEgr5HorabtrzdDsW8TYTHJEACJJAxAb94+YybLFz1dtx8Xn+ZCPoRhdfcjCWPu+8H2H5ACFvJxq+9PGLmzfcA2H3IQsynjZm3bTSPsWTl0KFDzVPcJ4FMCAR9j0RtLG15ux2KeZsIj0mABEggYwKNuCRlXGR23HxeoTauf0TD+g2hLB5w2YaJZ7Muv9VswsJ0zLKu9rMQ84i5r/UJsv+DDz5Q8Pz7hdKgToTZfPe73w0qzvMk4IxA2u+RtOXtjlDM20R4TAIkQAIZE7Dj5f2WpNy9eV/GVtS3+nqF2rj+EQ2jCEHu512PsjylHW+Ph4G8UxZiPk0fELuPJTAx+fWTTz7xVPXII49oMY9QHSYSyJpA2u+RtOXt/lHM20R4TAIkQAIZE7Dj5e0lKY/u71QPtczTn4xNqWv1dqhNHktUuv4RrQUQ3nTxyssWAj/IQw+h7yfkw2Lba9mQ9HrRxDz68dhjj2nRfu2116p169apd999Vy9TCa/8wIEDk3aV5UggFoG03yNpy9vGUszbRHhMAiRAAhkSqBUvDyG/+AcvVMQ8RH2jJHlAwRZ9tMV8HktUuv4RrTU2QeIcwl7i5CH4Idb9RDzyQfzXIxVRzIMDlqPEijoQ8PhgxR28iAqhNkwkkAeBtN8jacvbfaSYt4nwmARIgAQyJFArXt4W8iJ8MzQps6rfG36+wqfrnU0KYUOmmJ839BlVjyUqXf+IRoHnF24jXvpa2zAvfpS2GzUPQm7efvtt7Z3/7LPPGrWb7FdBCaT9Hklb3sZCMW8T4TEJkAAJZEjADrEx4+UbRcjvfeg7WsSLmP9oxVxlhg6JqP/tKzuVzQMCP8vk+kc0qq1JBD2FfFS6zEcC+RJI+z2StrzdW4p5mwiPSYAESCAjAn4hNhIv3/Hkqx7PNQTv3Gtm6HjrjMzJrFqIdxHy2L5/5xW6LXjjRchjC2+9HWqTddy86x/ROBAh6BFSA5Ee5pHH9XrEyMfpC/OSQDMTSPs9kra8zZ5i3ibCYxIgARLIiICfmEdTdgiKCN63f3q1R/RlZJbzarv/stcj5iXUxv7LA47tJSqzjpt3/SOaBJ6Iegh7xM0jVh5bCHicYyIBEig2gbTfI2nL23Qo5m0iPCYBEiABRwQQWgKPOz4QrhO/t1wN+8YS1dLapv7+7naF+PkgIf/GPVd5hDw8uRCBZUl2qM2HCyZqDvKggm094uZd/4iWZTxoJwmQgDsCab9H0pa3e0IxbxPhMQmQAAmkJAAR/9KPXvaElJgiFvsT+j2hfvYfHb55XrttuDq07GKPmIfntkzJL9TGL25+6x//kmvcvOsf0TKNCW0lARJwQyDt90ja8nYvKOZtIjwmARIggRQE/GLfbSEfdozye6Zd6BHy8MoHrUuewtRMiwaF2th9zztu3vWPaKYQWTkJkEAhCaT9Hklb3oZCMW8T4TEJkAAJJCRQyxtvC1n7GKE4nR0rSu+VF3x2qA0eSp4eNtnz1wg8vOQZN+/6R1T6yi0JkEDzEEj7PZK2vE2aYt4mwmMSIAESSEAgyCOPuHCI/Gu+vUzHyiNm3hbxcgwv9dH2yaX3ygs+CbV5/+4vV/q0+t6Rnv7nHTfv+kdU+ppmi/AjJhIggfIQSPs9kra8TYpi3ibCYxIgARJIQEAEubmFwJck66lD1Jt5zH145u1Yeax0UtYkoTa7brugIuaxQo/ZZ4h5LM8pfGSb1Xrzrn9Ek4yNzKlA320WuAe2rtqWpFqWIQESyIlA2u+RtOXtblLM20R4TAIkQAIxCfiF18DLLslektIUcPa+vRxl2WLlpc+ylVCbg09dpAX97qV9PAIW/c8zbt71j6j0M8oWIh5i3R5zv2P9kGPcQ1HqZx4SIIF8CKT9Hklb3u4lxbxNhMckQAIkEJOALcZMjzyqsmPCsSQlEsrZ3lnElMsLhcrslReEEmpjTuqtZ9y86x9R6WetLR5Y7Puk1jHuDfteqtUOr5MACWRPIO33SNrydg8p5m0iPCYBEiCBGAT8RJpd3H7LqYh55LPLy1tfIeiPb3/Brqp0x36hNnbcPLzVCKuREBtse87alElfXf+IRjHSHuNaIt68TkEfTviDDz5Qo0aNUp999llVxo0bN6pnn33W93Pw4MGq/DxBAlEJpP0eSVvetpNi3ibCYxIgARKIQQDxzab4gjC1kylSsY+wG0l+a68jFAWx8xDCjZDsUJt6xs27/hGNMj7m/SH7ItJl8iu2uJf8wnCQFw8ETF4CXV1dasCAAapHjx7q008/9V5USg0ZMkRfw3X7s379+qr8PEECUQmk/R5JW962k2LeJsJjEiABEohBwI6Xx7GZ7Hh5iHk7icCTLcQuVrVplITlNt8bfr7aN/Pz9fPtuHnpp/0XDIQnuU6uf0Rr2WffHxhj+x6x6/BbGcnvIdEu10zH8MhfeeWVFZHuJ+a/8IUvaEEP4W5/jh071ky42FfHBNJ+j6Qtb3eHYt4mwmMSIAESiEHAFl626AqKlzebEBEvW4hdCOBGSRJqYy5RiTCio2sGeLpos4K4d51c/4iG2ef3V5daQl7qs+8r3Bv19s77hbLA3qDz0hfX2/nz56tzzjlHffGLX1QtLS2+nvk9e/bo88jLRAKuCaT9Hklb3u4PxbxNhMckQAIkEIOAHQ+NkAgz2d5mM14e+ewwHYg2TBZtxHSqa19lcq9M8jVX68kjbt71j2jYOPmNbVh+8xoeBHAvyQMetnlPhkUsOj5r1qxRl1xyiRbHZ555prrrrru0qYhHv+CCC/T5s846S82cOdPsgu/+Pffco8aOHRv68S1onDz77LPV8OHDFbzzqMsvzOaXv/ylPr969WqjJHdJwA2BtN8jacvbvaCYt4nwmARIgARiEPDzvkLESQqLl0ceO0YaK718uGCiFG+4LVboESGvJ/nuOO05zWO9+aAfUTyUwWue9OM3UKjLFONhXnm/dm0xj2O/fEH1BuU1z5v3qt2HG264QfXs2VNBPD/44IPqueeeU9dff70WyTfeeKM677zz1KOPPqqWLFmiLrvsMn0ewj8soS47ft0+DiuPa++++24lS5CYh72od9asWeqrX/2qOuOMM9SXvvQl9cMf/lAxxKaCjzsJCQR9j0StLm15ux2KeZsIj0mABEggJgFbkEN0QeT7xctDsEqyvfoQfmHiSsqVeXt8x3yPmLdDbey/ZLiOmw/6EfULazGFeK19vzGx74uwsa1Vf63rfu3XKoPrYd5+iHkIYoh4SRDCEMY4/95778lptW3bNn1u/PjxlXN57ASJ+Ztvvlnbc9FFF+kHEYTbyGTZ/v37q1OnTuVhHttoUAJB3yNRu5u2vN0OxbxNhMckQAIkEJOAnyiHoJ+/codnuUUzBtyvDMRVoyeE1Zieeewj/EZS1nHzQT+ieYh5jHlQiiK8w/L41RuWX67VEvMQ7rbwRbw6YtXNhAmoEPhjxowxT2e+HyTmJ06cqG3p7Oz02IAQIdi5YMECz3kekEAcAkHfI1HrSFvebodi3ibCYxIgARJIQMD2wkIsTej3hBr2jSWqpbVNXfz9VWrYY68HLj+I/GGe2wQmFbJIvePmg35E8xDzYcJZxHXSrd9gR6krzCZ45hEWY6dzzz1X4ZqZRMyPHj3aPF21Dy9/0Nrvcr6qUMiJIDEfVOTQoUNazMNzz0QCSQkEfY9ErS9tebud3MR8d3d31dO9bUyUY3gITp48GSWrJ49rcJ7KeUACJND0BBBW4yfoowgq5AmKe25EsHbcvPmm26zj5oN+C/AgZcaSx933Gyf7AQH3R1Dya8++d7KImQ/7a0EWYt5FzLzJMK6YR1ksWTl06FCzGu6TQCwCQd8jUStJW95uJ3Mxv2jRItWvXz8Fw3v16qVaW1vV9u2fv8rcNibK8bhx4xL9Gc81uCi2Mg8JkEBzEUgq6JtJyOOOOLG3zRNqY98lWcbN5/lb4BdKFSaeTQ5+ZfP+y00WYh4x97U+Joda+35iHqvc4C8EfqE0aBthNt/97ndrVc3rJBBIIO33SNrytmGZivn7779fi/gRI0aoZcuWqTlz5ug4uz59+qidO3fattQ8nj17tq4vSUyea3A1jWUGEiCBpiQAQW97ZG0PqxzD05q3QCvDoGQZN5/3b4H91xqZHB02DkEPhWFlsriWhZh3baefmMdf8LFUJia/fvLJ6QnnaPuRRx7RYh4hPUwkkJRA2u+RtOVtuzMT81u2bNHC246fw3l46EeOHGnbEniMJ2msTYvO40MxH4iKF0iABApCYOLit9Q1316mY+ZHD3xaL1EIISehEhTxwQOV5Xrzrn9Eg3vx+RU/DzvugaBYdeTHdXngk2097peyinmQf+yxx7Rov/baa9W6dev0cpZYphJe+YEDB9YaNl4ngVACab9H0pa3jctMzItXfvPmzXabCktXoSO7du2qumafaG9vV1hGCvmnTZtGMW8D4jEJkEAhCdx2+0takMk681imkikagSzj5l3/iEbpUdBfauTBTuLl/UQ8xHxYrH2U9pPmKbOYR5/lTbEQ8PhgZR548uEgZCKBNATSfo+kLW/bnpmYHzRokLr00kt9J70uX75ci/K2tjbbnqpjCP/rrrtOrV27Vl8DAHrmqzDxBAmQQMEIYBUb8api22xx8WmHI6u4edc/olH6GSf0yrxn6inko/SrDHkQcvP2229r7/xnn31WBpNpYwkIpP0eSVveRpSJmMd/HoTSBP0pC8IcHZk+fbptT9XxO++843kgQDmK+SpMPEECJFAgAvDCY1lKU5jVI0yiQEhim2KLeXON/tiVGQVc/4gaVYfuJhH09fLIh3aEF0mABLSGTYPB9fdQJmL++PHjuqP4c5Zf2rBhg74+depUv8uh59KIeZT1+4Q2yIskQAIkEJPAmOe3e4Q8RD3EHFN0Avbbc3vO2hS9cEhO1z+iIU35Xgqa3Go++CHcJuqqN76N8CQJkECmBKJ+j/hpTjnn0sBMxHxXV5cWzVhG0i9t2rRJX580aZLf5dBzgEDPfCgiXiQBEqgzgWF3/3eVmK+zSaVr3i9uHufSpqg/wmnbqVUeoh5/rcEHIViIq8c+H/pqkeN1Eqg/gbTfI2nL2wQyEfPimQ8S8+KZnzJlim1PzWOK+ZqImIEESKDOBLCKjelpZbx8tAERZvBMI8nkYdlilZu0yfWPaFp7WJ4ESKB8BNJ+j6QtbxPLRMwjZh6GDhkyxG5PH3d0dOjrUWLm7QpQLz3zNhUekwAJFIUAwkPsya/Lx9yhX5JUFBuLZMd7w89XW276J8/DD0Q9wkzsuHmsP582uf4RTWsPy5MACZSPQNrvkbTlbWKZiHk0guUke/fubbenj1euXKnFPF4kFTdRzMclxvwkQAJ5EoDgtCe/bpgxNPSNp3naV6S2ut7ZpCDm8Vl45SSPoEfYSRYvj3L9I1oknrSFBEggHwJpv0fSlrd7mZmYRzw8jPVbSx4TX3ENL5CKm1COnvm41JifBEggLwLwJku4iGx3L+3jEfPv3/3liojNy64ittP9l70VDm2Dhnu4YSWXLF4e5fpHtIhcaRMJkEC2BNJ+j6Qtb/cuMzEvoTT33Xefp80DBw6olpYWNXjwYM95HGDiLD5hiWI+jA6vkQAJ1JtAS2ubR5RC0B9Z1bPyOfjURRUBC490s6e9D31H81j/zSs83PSKLkc+cR43j98QfsiA9wDvgbT3QJrvbrTtMmUm5mHkrbfeqr804YmHuH/xxRfVgAED9Dm8XtlM3d3dlS9Y87y9DwD0zNtUeEwCJFAEAvAkB8XLi6DfM+3Cipj/cMHEIphdVxsk1CbPuPm6dpiNkwAJND2BUon5zs5OhRVrzKcfxNK3t7dXDSTFfBUSniABEigZAb/Jr6vvHVnxyh9adnFFyMMrDyHb7MkMtckrbr7ZmbP/JEAC9SVQKjEvqI4dO6awtvyOHTvkVO5b1+By7wAbJAESKDwBvCwqbPKr6ZVniM3p4cRfKPwmwWYVN3+6Ze6RAAmQQP4EXGvSTMNs8scT3KJrcMEt8QoJkECzEvi/pv/WE/etl1g0Jr9CsMqHITan7xIJtXn7p1d7+GUVN3+6Ze6RAAmQQP4EXGtSivn8x5AtkgAJNCiBsMmvtlce4SVMnxMAC0wMxqo/sgKQbLHefM9ZmzwTYV28PIrsSYAESKBeBCjmE5J3DS6hGSxGAiTQoAT84uXlZVGY/Coeedk2KIbE3epcP0XPLZh7zQyPoPd7eRTCmZhIgARIoKwEXGtSeubLeifQbhIggboSONW1T53Y26aO75ivOjeOUltX9FVPPHWLap0zszLhVSa/7pt5egUbiHmG2FQP3Yk9r2puTw+b7BHziJu3Xx4FTz0TCZAACZSVAMV8wpFzDS6hGSxGAiTQAAQg4GWpyShb8cbLliE2/jcBWOIBSEJssEXcvP3yqB6T1/pXwLMkQAIkUAICrjUpPfMlGHSaSAIkUAwC8MZHEe9mHns5SrwkicmfAP7C4Rc3v/WPf/HEzEPMM27enyHPkgAJFJ8AxXzCMXINLqEZLEYCJFBSAkmEvIh6U9B3dqwoKYHsze4+/JqvmPeLm0foDRMJkAAJlJGAa01Kz3wZ7wLaTAIkkDsBEeb29q9bpqr/Wf2wJ1bezoNjEfQMsQkeOnlgsuPmUcKOmx+48M3giniFBEiABApMgGI+4eC4BpfQDBYjARIoIQEIdlugIyQE4hMJq6sg9EM+dl45/nDhv5Sw9/maDK7CC1vMT0Cy4+Y5CTbfcWFrJEAC7gi41qT0zLsbG9ZEAiTQgATEW2wKTAhOM9nroGOZSpQ7umaAR5jimCmcgD25WFjvPvJJ5WFJHpoYNx/OkldJgASKSYBiPuG4uAaX0AwWIwESKBkBP6+83QURl7KF8ERCDLj5EIB9nGMKJmAzMx+A7IcmivlgjrxCAiRQXAKuNSk988Uda1pGAiRQAAK2mJewDzENXngR8bKVa9gGhY2Yebh/moDfX0LkAQhx8sIYW06CPc2NeyRAAuUhQDGfcKxcg0toBouRAAmUjIAdKoMXRZnJjpe3305qh43g4YApnID9ACTMOAk2nBuvkgAJlIOAa01Kz3w5xp1WkgAJ1ImAHSYjk17FnFpiHuLfrENiwKU8t9UE7AcgCbXhJNhqVjxDAiRQPgIU8wnHzDW4hGawGAmQQMkI2J55CfmQbphhH9hH2I2ZbGEqXmYzD/e9BIJCbTgJ1suJRyRAAuUk4FqT0jNfzvuAVpMACeREwA75MGPm/cSlTH4V88LKSx5uqwmYD1HmVcbNmzS4TwIkUEYCFPMJR801uIRmsBgJkEDJCNiedQn5QDdqTX61V2ZBuI0dc18yHHU31w5r4suj6j4kNIAESCAmAdealJ75mAPA7CRAAs1FwC/kQ7zztrC0J7/aXnmIeaZ0BBg3n44fS5MACdSfAMV8wjFwDS6hGSxGAiRQQgJ+ohyC3l73XOLl8QDgV4Ze+fSDHyW0KX0rrIEESIAEsiPgWpPSM5/dWLFmEiCBBiHg552Hl33rir7qoZZ5ns+Bjn/3rF4jK9mY4TkNgqVu3bAnHfPlUXUbCjZMAiSQgADFfAJoKOIaXEIzWIwESKCkBOwlJiHSN8wY6hHyEPYi3s0thLy9Ck5JMRTCbE6CLcQw0AgSIIGEBFxrUnrmEw4Ei5EACTQfAVvQ22L+6WGTq8Q8hbz7+4Qvj3LPlDWSAAnkR4BiPiFr1+ASmsFiJEACJSeAkBtZ4Wb5mDs8nnkcmx55mShb8i4XznxOMVHMugAAIABJREFUgi3ckNAgEiCBGARca1J65mPAZ1YSIAESEALwuM+9ZoZHzL865w6Fl0JRxAslt1uZn/D8TTcoxs27ZcvaSIAE8iNAMZ+QtWtwCc1gMRIggQYhAA+8iEvZHt3f2SC9K1Y3Fv/gBQ/rtkHD1RV3P+ER9JwEW6wxozUkQALBBFxrUnrmg1nzCgmQAAn4Eti187e+k1/fG36+wofJLYGOJ1/1iPmfXP6w+vkt13rEPOLomUiABEigDAQo5hOOkmtwCc1gMRIggQYgsOOtn1eJ+YVXTtJCHmL+wwUTG6CXxenC7s37PGIefwnpGHmZR8zzTbDFGS9aQgIkEE7AtSalZz6cN6+SAAmQQBUBxMXbk1+XDLi9IuY7O1ZUleGJ5AQQviShTLJd/80rPKE2eIEXEwmQAAmUgQDFfMJRcg0uoRksRgIk0AAE/Ca/tg8eXBHzDdDFwnXBL27eDrVh3Hzhho0GkQAJ+BBwrUnpmfeBzFMkQAIkEEbAb/Lrlpv+SYt5htiEkUt+zY6bR1iTHWrzszcOJG+AJUmABEggJwIU8wlBuwaX0AwWIwESKDkBvDjKflkUQj9k8itDbLIZYDtuHpNgwdxc1YZx89mwZ60kQAJuCbjWpPTMux0f1kYCJNDgBF7u+C+1+t6RnhhuM16+wbtft+4Fxc2boTaMm6/b8LBhEiCBGAQo5mPAMrO6BmfWzX0SIIHmIRA2+ZUhNtndB92HX1NPD5vseYjCevNmqA3FfHb8WTMJkIA7Aq41KT3z7saGNZEACTQBgbDJr13vcEWVrG6BU137qv4iIsuB3jxuRmWZSk6CzWoEWC8JkIArAhTzCUm6BpfQDBYjARIoMYHdRz5RmPxqT4CVya8l7lopTN/+iykez7zEzZuhNnx5VCmGkkaSQFMTcK1J6Zlv6tuJnScBEohDAJNfRczLVia+MsQmDslkeQ++/v96xDwmHmO9eTPUhpNgk7FlKRIggfwIUMwnZO0aXEIzWIwESKDEBDD5VUQ8tgefuqiyig1DbLIfWITa+MXN44FKQm0YN5/9OLAFEiCBdARca1J65tONB0uTAAk0EYH/bvuBR8zvn/eViphvIgx17ar98iiJmzdDbepqIBsnARIggRoEKOZrAAq67BpcUDs8TwIk0LgEtq7o6xHze6ZdqMU8Q2zyG3M7bn5Cvycqk197TF6r9zkJNr/xYEskQALxCbjWpPTMxx8DliABEmhCAhCIIhYlTn7XbRdoMc8Qm/xuiCO7tnkeqLC6EOLkZWyw5STY/MaDLZEACcQnQDEfn5ku4RpcQjNYjARIoKQEfvbGAY9ghGhEgrBnyo8A4ubNeQvYn77sOc/YcBJsfuPBlkiABOITcK1J6ZmPPwYsQQIk0IQExjy/3SMYccxUHwKdG0d5BP3/rH7YMzacBFufcWGrJEAC0QgURsx3d3erU6dORbM6IFfcOuLmN5t1Dc6sm/skQAKNTwAC0QzlgKeeqT4Eju+Y7xHzf/jNMM/YyF9N6mMdWyUBEiCBcAKuNWlsz/yiRYtUv379FAzp1auXam1tVdu3x/NQxanj+PHjas6cOaqlpaXS5s0336w2bNgQTsq66hqcVT0PSYAEGpyAKeSxTzFfvwHvPvyaR8wj1MYeH06Crd/4sGUSIIFwAq41aSwxf//992tBPWLECLVs2bKKyO7Tp4/auXNnuOV/uxq3jtGjR+s2R44cqZYvX64ef/zxysNER0dHpDaRyTW4yA0zIwmQQCkJdP9lr/poxVz92fCv31RY+vCR20bo9cy/PGG5wttgmepDwC9u/uqZi/TY/Ovt4/U4YcywylBnxwr9qY+lbJUESIAEqgm41qSRxfyWLVu0IIa4NhPOw0MPsV0rxa1j3bp1us3bb7/dU/WuXbt0m1//+tc958MOXIMLa4vXSIAEyksAIh4iUFas8dvijaMQ+sjLVB8Cdty8+QIvvzF7/84rKOrrM1RslQRIwCLgWpNGFvPiUd+8ebNlklLjx4/XohsiOyzFreORRx7R9ba3t1dVKx57hOFESa7BRWmTeUiABMpFAALdTwgGnYNARBmm/Amc2NtWCbUJGh+/8xgzJhIgARKoJwHXmjSymB80aJC69NJLfSe9IvwFhrW1tYWyiVvH0qVLdb2LFy+uqveGG27Q3nlMio2SXIOL0ibzkAAJlIdALW+8nzDEOQr6+owx/ioSNCa1zlPQ12fM2CoJkMDnBFxr0khiHqvWIJRm4MCBvuOwdu1aLbqnT5/uex0nk9Rx6NAh1bdvX3XVVVepHTt2VOpesGCBbm/KlCmVc7V2XIOr1R6vkwAJlIdAkEdehDrisG8eN0PHYvsJReTji6PyHW+/ccA5zGuQ8Xpt5v+j9j70HV/RT0Gf73ixNRIggdMEXGvSSGIeoSxoeOzYsactMfawsgyuT5061Tjr3U1aB0J3EI+P+iHssaoN/kKAFW6ieuVhiWtw3t7xiARIoMwE/IShhM+Yb37FiimY/Oon/ikO87sD/P6KAtF+y+OveFa1kTfBYhIsxsceZz6A5TdmbIkESOA0AdeaNJKY7+rq0mJ43Lhxpy0x9jZt2qSvT5o0yTjr3U1Sx8mTJ9W///u/678KXHfddWrChAnqzjvv1GIek19ff/11byMhRwAX9AkpxkskQAINTsBPGJoiD0tQtrS2qYda5lU+QOIn6CEambInYItyCHkkiHdziUrzTbAIy7EFPR/Ash8rtkACzUwgSHfWRcyLVz1IzItnPizsJUkds2fP1gIcE2fNF1Tt2bNHDRgwQPXu3Vvt3r070n3iGlykRpmJBEig8ARsYQhxbya86XXYN5ZUhDxE/Us/ellnsUM4KA5Nctns+z18yapC9l9R7DfB4iHNHm/zwS0bi1krCZAACXgJuNakkTzzENJoeMiQIV5r/naE9d5xvVbMfJw60CbCaS6//HLfcJoXX3xRt/njH//Y1yb7pGtwdv08JgESKB8BP3EnwlB6A0E4od8THjG/ddU2fdkuTzEv1LLb2mJewqHQItb+Nz3z2LeT/QBmlrfz8pgESIAEsiDgWpNGEvPoSP/+/bUn3K9TK1eu1MIaL5IKS3Hq6Ozs1HUG/TXg8OHD+jqWxYySXIOL0ibzkAAJFJsAwmJMT62Ea5hWQxCaITbYFzHvt6KK/TBg1sX99ATsUBk7tEnEvIyr7Xm3w6Psv8Skt5A1kAAJkEA4AdeaNLKYRzw8GvdbSx4TX3ENL4UKS3HqwORW1Dl48GDfKt966y19PSxO3yzoGpxZN/dJgATKScAWdraY//MHu9TF319VJeaP7u+sdNgWl7Z4rGTkjhMCItJlaz484UFr4ZWTPA9otuc9ygOcE0NZCQmQAAkEEHCtSSOLeQmlue+++zymHThwQK8w4ye6MekVH0lx62htbdWC/ZVXXpEqKtt77rlHX3vppZcq58J2XIMLa4vXSIAEykGglrDDi4k2zBhaJebN3omolK0pLs183HdDwH542rZkhWd8fnL5wx4xbz+g2Q9w9My7GRfWQgIkEJ2Aa00aWczDxFtvvVULaHjiIcwRt46JqDBq3bp1nl6IZ902OE4dO3fuVF/72td0eM+8efN0mxD2t99+u24Tb4GNmmw7opZjPhIggcYlUCvm/a9bpqrlY+7wiEWZ/AoqdnkIeqZsCdgx73+a/5BnfOCdX//N08tQ2vMY7PK25z5b61k7CZAACbhfLj2WmEccO1asgTCWD+Lg29vbq8YmSMzHqQOV4mVRss68tImJsVjp5sSJE1XtBp2gmA8iw/Mk0LwE/GLezRjso2sGqLnXzPCIRYmXBzV7MqYtHJuXbHY9tz3rYD5v6DOeMTLFPB6wJPTJ7+HLHO/srGbNJEACJHCagGtNGkvMixnHjh1TWFvefCurXIu6jVvH0aNHdZuIyzeXqYzanmtwUdtlPhIggWITsD21EIcSKnNkVU+PSITXd/fmfbpDFIb1GVe/BzDEyWNs5GPHzYuYt8eaf0mpzxiyVRJodgKuNWkiMV/GQXANrowMaDMJkEA1AT9xCEHfuW6eevunV1cEoghF1OAn5CkMq9lmdcYW5W2DhnvGyY6bx19Q7DIYL3rlsxoh1ksCJBBGwLUmpZgPo81rJEACTUHADpeB0Nsz7cKqya8I5/AThRSG+d4m9gPYlpv+ySPm8eCFcxiXoA9DovIdM7ZGAiRwmgDF/GkWsfZcg4vVODOTAAkUmgDEoS3S98/7StXk1yUDbvcVh1wRJf/htVcikr+cyHbrf1ztO1YQ9xDyEnqTv+VskQRIoNkJuNak9Mw3+x3F/pMACWgCtqA/tOziqsmv7YMHVwlECvn63UCmoLfj5lffO1K9f/eXq8aLQr5+48WWSYAEPidAMZ/wTnANLqEZLEYCJFBgAhD0WC0Fgs9v8qsZuoE8jLmu/2BizPBAZcfNYxWifTMv9Ih5LkNZ//GiBSRAAnVemrLMA0AxX+bRo+0kkC+B49tfqIqXR/gGBDyEI0V8vuMRpTWsMiQhNrLFX1ckZh5hVEwkQAIkUAQCrjUpw2yKMKq0gQRIoFAEjrZPrhLzi3/wQqFspDFeAkf3d1aJeaxGtOu2C7Sgx4MYEwmQAAkUgQDFfMJRcA0uoRksRgIkUAICh37eX4fZINQGH7wJlqn4BPDAJV55bO24+eL3gBaSAAk0AwHXmpSe+Wa4a9hHEiCBWAQQniFCHtsdb/08Vnlmrg+Bjidf9Yj5p4dNVgefuqgSasMVbOozLmyVBEjAS4Bi3ssj8pFrcJEbZkYSIIFSEYDgM4U89tf+4Y+l6kOzGmvHzWMSrBk3zwmwzXpnsN8kUCwCrjUpPfPFGl9aQwIkUGcCJ/a2VYn53Uc+qbNVbD4KgaC4+atnLlI9Jq9VM15+P0o1zEMCJEACmRKgmE+I1zW4hGawGAmQQMEJYLUaWQEFXvlfLx1ScItpnkkAcfOdG0d5HsimPT5Bi/mBC980s3KfBEiABOpCwLUmpWe+LsPIRkmABIpKYMzz27XwgycXn1X/9Z9FNZV2BRA4vmO+R8zjgQxj2XPWpoASPE0CJEAC+RGgmE/I2jW4hGawGAmQQMEJwHsrQh5bhmYUfMB8zOs+/JpHzG9d0Zdi3ocTT5EACdSHgGtNSs98fcaRrZIACRSUALy3ppj/2RsHCmopzQoicKprn0fMI1xK4uZ/+6ePg4rxPAmQAAnkQoBiPiFm1+ASmsFiJEACBSdgCnnsc/JrwQcswLyguHn+pSUAGE+TAAnkRsC1JqVnPrehY0MkQAJFJwAvvC3mi24z7fMnYMfNS6gNJ8H68+JZEiCB/AhQzCdk7RpcQjNYjARIoMAE7MmvOGYqJwE7bh6hNhc9sEJRzJdzPGk1CTQSAdealJ75Rro72BcSIIFUBGwxz5CMVDjrWlji5hEjb/61hSva1HVY2DgJkIBSimI+4W3gGlxCM1iMBEigwAQ4+bXAg5PQNMx5MMU89jkJNiFMFiMBEnBCwLUmpWfeybCwEhIggUYgYIs+Tn5thFFVOrTGHFuuUNQY48pekEBZCVDMJxw51+ASmsFiJEACBSXAya8FHRgHZvHdAQ4gsgoSIAFnBFxrUnrmnQ0NKyIBEigzAcTHD/vGEvVQyzwdlsHJr2UeTa/tGFvTM89JsF4+PCIBEsiXAMV8Qt6uwSU0g8VIgAQKSgDifUK/J7SYh6DHZ+uqbQW1lmbFIcBJsHFoMS8JkEDWBFxrUnrmsx4x1k8CJFAKApj8KiJetkf3d5bCdhoZToCTYMP58CoJkEC+BCjmE/J2DS6hGSxGAiRQUAItrW1VYr6gptKsBATslYrev/OKBLWwCAmQAAmkJ+Bak9Izn35MWAMJkEDJCWDy6zXfXuYR8y/96OWS94rmmwRuefwV9ZPLH1bvDT+/8ul6Z5OZhfskQAIkkAsBivmEmF2DS2gGi5EACRSQwP55X1HLx9xBMV/AsUljEsKkJGRKtuu/eQXFfBqoLEsCJJCagGtNSs986iFhBSRAAmUm0NmxQh1adrGae80Mj/Dj5Ncyj+pp2xf/4AXPuLYNGq523XaBev/uL6uP2iadzsg9EiABEsiJAMV8QtCuwSU0g8VIgAQKRuCjFXPVkVU9PYIPXlxOfi3YQCU0p+PJVz1j+/SwyXq8MebyObpmgDq+Y7461bUvYSssRgIkQALRCbjWpPTMR2fPnCRAAg1I4Gj7ZLVhxlCP4IOYZ2oMAn/6/17zjC3+AiMi3t6KqG+MnrMXJEACRSVAMZ9wZFyDS2gGi5EACRSMwKGf92e8fMHGxJU58LTvXtrHI+bxoPb2T68OFPQQ+BD1TCRAAiSQFQHXmpSe+axGivWSAAmUggDi5e3JrwjNYCo3AQh58bwjtEYmwGK7+t6Rep6EXPfbUtCXe/xpPQkUmQDFfMLRcQ0uoRksRgIkUCACmPwKIcfJrwUaFEemdG4cFSjmF145SV/bN/NCtWdqPx0v7yfo/7plqiNrWA0JkAAJnCbgWpPSM3+aLfdIgASajABWM/ELw+Dk13LfCCf2tlWEPEQ6wmpMz7zEzR986iIlL4+CJx/eeFPU45iTYst9L9B6EigiAYr5hKPiGlxCM1iMBEigQAT2z72Sk18LNB6uTLFF+Qf/7X2HgMTNI8QKL5GSZIbmiKind17ocEsCJOCKgGtNSs+8q5FhPSRAAqUjwJdFlW7IahrsJ8i7D7+m5g19xuOdl0mwWG/efBMsxLsIeWwZO18TOTOQAAnEJEAxHxOYZHcNTurllgRIoJwEIOD8XhbFya/lHE+x2g6xgSBHsl8eJevN44EO7xqQ5PcwINe4JQESIAEXBFxrUnrmXYwK6yABEigdAZn8anphEX7BN7+Wbig9BuPlT+aYSpiM/fIoiZvHA93eh75TqcNPzMOzz0QCJEACrghQzCck6RpcQjNYjARIoCAEMPnVFH3Y/9kbBwpiHc1ISsAW81jVBgmTms1JsNjH5GeMO1a0MZN9X0DgM5EACZCAKwKuNSk9865GhvWQAAmUigAmv5qibeuKvhTzpRpBf2PhRTfH1Yx5t8V8UNy8WR77TCRAAiTgkgDFfEKarsElNIPFSIAECkIAsdKmaHviqVvU7iOfFMQ6mpGUgB0mAzEvYTJ23DxeHoV7AN58SUEx93KdWxIgARJIS8C1JqVnPu2IsDwJkEDpCCBeHrHSpphvnTOzdP2gwdUEIObtpSntuPntr/5vz9hLKA5qCypb3RLPkAAJkEAyAoUR893d3erUqVPJevG3UnHrQHsnT55M1KZrcImMYCESIIHCEBjz/HbVY/Javc74I7eNUDhmagwCft510/u+5vV2j5iXUBzzrbHyoCde/cYgw16QAAkUgYBrTRrbM79o0SLVr18/BUN69eqlWltb1fbt8X4E49bxyiuvqJtuukm3iXavuuoqtXDhwljj4RpcrMaZmQRIoHAERMxD0OMz4+X3C2cjDUpGwM87D3EODz3E+Z8/2OUR87hme+QlfzILWIoESIAEggm41qSxxPz999+vBfWIESPUsmXL1Jw5c1RLS4vq06eP2rlzZ7DVxpW4dSxdulS3OWjQIIWHABzfcMMN+tz06dONmsN3XYMLb41XSYAEik6g56xNWsSLmOdKNkUfsXj2+XnnxduOyc6yH7QVb328VpmbBEiABGoTcK1JI4v5LVu2aAE9evRoj5U4Dw/9yJEjPef9DuLWsXv3bl33kCFDVGdnZ6XKEydOVAQ98kRJrsFFaZN5SIAEiktARLxsOfm1uGOV1LIwQR8k4nGeQj4pcZYjARKIQsC1Jo0s5sWjvnnz5io7x48fr4X+rl27qq6ZJ+LWMXv2bF3v7373O7Mavf+b3/xG3XXXXerNN9+suuZ3wjU4vzZ4jgRIoBwE4IUXES/bclhOK+MSgKD3C6EJEvMU8nEJMz8JkEBcAq41aWQxjzCXSy+91HfS6/Lly7XobmtrC+1P3DrgkUd8vovkGpwLm1gHCZBAfQggPl5EPLac/FqfccirVcTQYwJsLVEP4c9EAiRAAlkTcK1JI4l5rCKDUJqBAwf69m/t2rVazIfFsMetA/nRWXj9keCJnzJlij6eNWuW2rNnj68tQSddgwtqh+dJgASKT8Ce/EoxX/wxc2UhhD0mwe546+cKsfNXz1ykH+wwh4KJBEiABPIg4FqTRhLzx48f18J67Nixvn3csGGDvj516lTf6zgZt47Dhw/rOiHgx40bp/e/9rWv6Qm3gIBJt+vXrw9sz76AMkEfOy+PSYAEGpsAJ7829vhG6R3mSJh/ncH+b//0cZSizEMCJEACkQgE6U6cd5kiifmuri4thCGq/dKmTZv09UmTJvld1ufi1vH666/rOhHaM2DAAIXJs5La29t1yA/E/aFDh+R06NY1uNDGeJEESKDQBGwRx8mvhR6uzIyzH+oo5jNDzYpJgAQMAq41aSQxL171IDEvnnl40YNS3Dow0VaeaPCwYKfHH39cX8dylVGSa3BR2mQeEiCB4hHg5NfijUm9LBq48E2Pd57vGqjXSLBdEmguAq41aSQxL/HrmJDqlzo6OrSwrhUzD+Oj1nHs2DFdZ+/evf2aVFH+GmAWdA3OrJv7JEAC5SFgi3kIOqbmJGBPhOa90Jz3AXtNAnkTcK1JI4l5dLJ///4qSFivXLlSC2+8SCosxalDJszipVR+CctVAsaECRP8Lledcw2uqgGeIAESKAWB+fM2qoda5nk+pTCcRjongLAaM+SKk2CdI2aFJEACPgRca9LIYh7x8Gjcby15THzFNTOu3cd2FbeOW265Rde7f//+qupeeeUVfe2RRx6puuZ3wjU4vzZ4jgRIoPgEht393x4hv/gHLxTfaFqYCQG/SbCcP5EJalZKAiRgEHCtSSOLeQmlue+++wxzlDpw4IBeYWbw4MGe8zjApFd8JMWt48UXX9SC3V4lB157vHEWMLZv3y7Vh25dgwttjBdJgAQKS2DYN5Z4xPxLP3q5sLbSsOwJmJ55rmiTPW+2QAIkoLR+dckhsphHo7feemtFXEOYQ2xjpRkI5XXr1nns6u7u1udtER2nDlQ4ZswYXQ/e9rpmzRoFj3xra6s+Fxaj7zFGuQdn189jEiCB4hNAWMWEfk94xPzWVduKbzgtzIyATIJ9b/j5av03r1DY7n3oO5m1x4pJgARIwNbGaYnEEvOdnZ36xU0wQj6Ig8dSkXYKEvNx6kCdJ06cULNnz9ZLUUqbiN2fN2+e3WTosWtwoY3xIgmQQCEJHFnV0yPkETt/dH9nIW2lUdkTQIiVOX+ibdBwLebfv/OK7BtnCyRAAk1LwLUmjSXmhTpWmsFqMjt27JBTsbdx6zh58qTCcpVvvvmmwn7c5Bpc3PaZnwRIoL4E9s+9Um2YMdQj3iDkmJqXQMeTr3ruh59c/rAW8/DOd71TvSRy85Jiz0mABFwScK1JE4l5lx3Kqy7X4PKym+2QAAm4IbBv5oVVYp6TX92wLWstuzfv84h5PNxByOPz0Yq5Ze0W7SYBEig4AdealGK+4ANO80iABNIT6OxYofbP+4paPuYOj3jj5Nf0bMtcA0KszDAb7DNuvswjSttJoBwEKOYTjpNrcAnNYDESIIE6EPhwwUR1aNnFau41MzzijZNf6zAYBWuScfMFGxCaQwJNQMC1JqVnvgluGnaRBJqdACY0cvJrs98F/v234+YXXjmpEmrjX4JnSYAESCAdAYr5hPxcg0toBouRAAnUgcCeadXx8pz8WoeBKGCTdty8TILFX3I4CbaAA0aTSKABCLjWpPTMN8BNwS6QAAkEE4AgQ7z86ntHekJsGC8fzKyZrvjFzb/906v1X3I+Xv1YM6FgX0mABHIiQDGfELRrcAnNYDESIIGcCWDyK7ysnPyaM/gSNWfHzePBD2FZHy78lxL1gqaSAAmUhYBrTUrPfFlGnnaSAAkkIoDJrxBmnPyaCF9TFLLj5p8eNlnfMwefvKop+s9OkgAJ5EuAYj4hb9fgEprBYiRAAjkT2DO1nxZm9hKEfPNrzgNR4ObsuHk8+OEBkHHzBR40mkYCJSbgWpPSM1/im4GmkwAJ1CaAya8QZviYgr52SeZoFgJhcfOcBNssdwH7SQL5EaCYT8jaNbiEZrAYCZBAjgTkZVEi5rF94qlb1Jjnt+doBZsqA4GguPnOdfPKYD5tJAESKBEB15qUnvkSDT5NJQESiEfgoxVzdaiEKeZb58xUP3vjQLyKmLvhCdhiXuLmP/rliIbvOztIAiSQLwGK+YS8XYNLaAaLkQAJ5EhAJr/aYn73kU9ytIJNlYFAUNx858ZRZTCfNpIACZSIgGtNSs98iQafppIACcQjsG/G55NfTTF/0QMr4lXC3E1BwIybh1de5lfMG/qMgtceK95w0nRT3ArsJAlkToBiPiFi1+ASmsFiJEACORN4b/j5Sj4Q9YyXz3kAStAcRLodZiNi3txC2FPUl2BAaSIJFJyAa01Kz3zBB5zmkQAJpCMA8d5j8trKh2I+Hc9GK22H15jiPWgfop5e+ka7E9gfEsiPAMV8QtauwSU0g8VIgARyJtBz1qaKkIeo5+TXnAegwM0lEfIi8CnoCzywNI0ECk7AtSalZ77gA07zSIAE0hEwvfLY5+TXdDwbpXSQkJ/Q7wn1v0b9H/X2T69Wu5f20dvV946sxNCLmMcWgp6JBEiABOISoJiPS+xv+V2DS2gGi5EACeRIAF54W8zn2DybKjABvxh5xMMPXPimwiRpc9I09g+9/YpvXP3WVdsK3EuaRgIkUEQCrjUpPfNFHGXaRAIk4ISALeYh1JhIwM8rDyGPNOPl9/UD4NYVfT2CvvvwazpO3n4IoHee9xMJkEBcAhTzcYn9Lb9rcAnNYDESIIEcCXDya46wS9TUSz962RM2Ywry3/7pYy3mf710iBbzmHNhJnMJSwm5wcMBEwmQAAlEJeBak9IzH5XVmNsRAAAgAElEQVQ885EACZSOACe/lm7IcjEY4l2EOLZmqAzmVNihWfY8C9s7L179XIxnIyRAAqUnQDGfcAhdg0toBouRAAnkSKCWKMvRFDZVIAKmkMe+vcykfd/AW28miHezDnj6mUiABEggKgHXmpSe+ajkmY8ESKBUBCRcwhRmpeoAjc2MgCnE/cQ85laY9w3i6M0ET75ZB8W8SYf7JEACtQhQzNciFHDdNbiAZniaBEigIATsya927HNBzKQZdSBgh9nYMe8yCVYEvT1x2o65p5ivwyCySRIoMQHXmpSe+RLfDDSdBEggmIApuCDK+ObXYFbNdsWOebfFuP1XHftB0H4YMGPum40l+0sCJBCfAMV8fGa6hGtwCc1gMRIggZwIUHDlBLqEzdgx77hXzOQ3CVau2yE2fmE6kpdbEiABEvAj4FqT0jPvR5nnSIAESk/AjGnGPr2npR9SZx3wW17S9M77iXl46/3KwcvPRAIkQAJxCFDMx6Fl5HUNzqiauyRAAgUj4PdSIHvFkoKZTHNyJmCGYcmDH4S53Cf2JNj137zCM+lVytjx9jl3g82RAAmUkIBrTUrPfAlvAppMAiQQTOD4jvnaCy9iS7bBJXilGQlAtNuhWLhXcA5Cf+L3lvuKd7mfsKVXvhnvHPaZBNIToJhPyNA1uIRmsBgJkECGBD5cMFHtn/cVtXzMHR4hZoZQZNg8qy4ZgSBBbwr2oH0K+ZINNs0lgQIRcK1J6Zkv0ODSFBIggXQE3r/zCnVo2cVq7jUzPGL+Vz/7fbqKWbphCSQR9BTyDXs7sGMkkAsBivmEmF2DS2gGi5EACWRI4L3h56sjq3p6hDw8q79avyfDVll12QlA0GOFG7+wG9szj9j5rnc2lb3LtJ8ESKCOBFxrUnrm6ziYbJoESMAdAQisPdMuVG//9OoqMY/VSZhIoBYBiHqseoSPniB787NV9xLE/Ecr5taqitdJgARIIJAAxXwgmvALrsGFt8arJEACeRPo7Fih9s28UG2YMdQjwCb0eyJvU9hegxDAija4f0zvfPvgwWrvQ99pkB6yGyRAAvUg4FqT0jNfj1FkmyRAAs4JcPKrc6RNX+GMl99Xowc+7RHzC6+cpDA3g4kESIAEkhKgmE9IzjW4hGawGAmQQEYEgia/zp+3MaMWWW2jE8CLolpa2zxiHpOrMS+j+/Brjd599o8ESCAjAq41KT3zGQ0UqyUBEsiXACe/5su7GVrDXIu/v7vdI+YRcoN5GXifARMJkAAJJCFAMZ+EmlLKNbiEZrAYCZBABgQQL4/Jr3a8PIQXJ79mALyJquw5a1NVqM3qe0eqzo2jmogCu0oCJOCSgGtNSs+8y9FhXSRAAnUhgNVF8LIoW8wj3pmJBNIQwCTYa769zOOdf3rYZHV0zYA01bIsCZBAExOgmE84+K7BJTSDxUiABDIgwMmvGUBllZoAJsFe/P1VHjHPuHneHCRAAmkIuNak9MynGQ2WJQESKAQBmfyKiYnyaZ0zU415fnsh7KMR5SWASbCMmy/v+NFyEigigcKI+e7ubnXq1KlUjFzUEdUA1+Citst8JEAC2ROQya8i5LG96IEV6mdvHMi+cbbQ0AQw56LH5LWMm2/oUWbnSCBfAq41aWzP/KJFi1S/fv30hNJevXqp1tZWtX17PO9XmjrefPNN3fa0adNikXcNLlbjzEwCJJAZAZn8agp57EOAcfJrZtibqmJMgmXcfFMNOTtLApkScK1JY4n5+++/XwvpESNGqGXLlqk5c+aolpYW1adPH7Vz585IHU9Tx7Fjx9TAgQMp5iORZiYSaA4CEi9vivknnrpFi/nmIMBeZk0Ak2DNuHnzXuN681nTZ/0k0HgE6ibmt2zZokX06NGjPVRxHh76kSNHes77HaStY8qUKdoGQKBn3o8wz5FA8xFAvDzCbMxQm2mPT1AQYEwk4IIAJsHiLz34/HrpkMq8DIh6rjfvgjDrIIHmIlA3MS8e9c2bN1cRHz9+vBbZu3btqrpmnkhTx+rVq3UbU6dO1VuKeZMs90mABDDZVQQXtpz8ynvCFQFMgpV7yxbzXG/eFWXWQwLNQ6BuYn7QoEHq0ksv9Z30unz5ci2w29raQkciaR0HDx5Uffv2Vffcc4/atGkTxXwoZV4kgeYkgLhmEVzYcvJrc94HWfRaJsHivsJffcwwG643nwVx1kkCjU2gLmIeq9YglAbx6n5p7dq1WmBPnz7d77I+l6aOW2+9VV111VXq6NGjFPOBhHmBBJqbgCnksc/Jr819P7juvdxfWCXJFPPYP9W1z3VzrI8ESKCBCdRFzB8/flyL9bFjx/qi3bBhg76OEJiglLSOZ555Rte9fv16XTU980GEeZ4EmpcAvPAitmTbvDTY8ywIYA6G3Fu2mOck2CyIs04SaFwCdRHzXV1dWlCPGzfOl6wI7EmTJvlex8kkdWCFHIT2PPzww5V6pa0kMfOA5/epVM4dEiCBUhKwxTwnv5ZyGAttNCfBFnp4aBwJFJKAn+aUcy4NjrQ0pXjVg8S8eOax2kxQilsHXig1dOhQNXjwYHXixIlKtWnEfKUS7pAACTQUAU5+bajhLGRnzEmwZtx8IY2lUSRAAoUmAEHvMkUS84h3R8NDhgzxbbujo0NfrxUzH6eORx99VNe5YMECtW7dusoHL5xCPVgiE+ejvrDKNThfEDxJAiRQFwKc/FoX7E3VqDkJVsJtOC+jqW4BdpYEnBFwrUkjiXlY379/f9W7d2/fjqxcuVILbLxIKizFqUOWu0SHwz5hoT2mLa7BmXVznwRIoL4ERFzJliKrvuPRqK3L/SVbeOuZSIAESCAuAdeaNLKYh2hG435rycva73gpVFiKU8fvfvc7hYcE+yMe+9bWVn3Nb917Pxtcg/Nrg+dIgATyJ2DHy0NoMZFAFgTMSbC4zxBHz0QCJEACcQm41qSRxbyE0tx3330emw8cOKBaWlp0bLvnwt8mvWLiq6QkdUhZ2TJmXkhwSwIkAAK2mOfkV94XWREwJ8FCzPNey4o06yWBxiZQNzEPrFjvHQbAEw9h/uKLL6oBAwboc4hfNxMmsCKvbXCcOsz6ZJ9iXkhwSwIkAALzhj5TWTIQAotvfuV9kRUBcxIs7jXM1WAiARIggbgEbG0ct7ydP7JnHgU7OzsVVqwRkY4t4uDb29vtelWQmI9TR1WlSvGlUX5QeI4EmpjAQy3zlPn51fo9TUyDXc+SACfBZkmXdZNA8xCoq5gXzMeOHdOieseOHXIq9tZFHXEadQ0uTtvMSwIkkA2Brau2eYQ8RD0nv2bDmrV+TgAeefPDSbC8M0iABOIScK1JY3nm4xpbpPyuwRWpb7SFBJqVQMeTr3rE/LBvLGlWFOx3TgSCJsH+5PLTLzfMyRQ2QwIkUFICrjUpxXxJbwSaTQIkoNRLP3rZI+Ynfm85sZBApgRkEuyXJyz33Hv6r0Kb92XaNisnARJoDAIU8wnH0TW4hGawGAmQQEoCXe9sUu8NP18dWdVTzb1mhkdQzZ+3MWXtLE4C4QTMSbCjBz7tuf/wlyImEiABEqhFwLUmpWe+FnFeJwESKBSBzo4Vas+0C7WYNye+Yp+TXws1VA1pjDkJ9ppvL/OI+cU/eKEh+8xOkQAJuCVAMZ+Qp2twCc1gMRIggZQEPlwwUYv5DTOGeoQUJ7+mBMvikQnIBNiLv7/Kcw9imVQmEiABEqhFwLUmpWe+FnFeJwESKBSB9++8Qu2f9xW1fMwdHiHFya+FGqaGNkYmwf793e2ee5Bx8w097OwcCTgjQDGfEKVrcAnNYDESIIGUBBAvf2jZxVVi/rbbX0pZM4uTQDQCMgkWHvoHBvyHR9Azbj4aQ+YigWYm4FqT0jPfzHcT+04CJSOAeHmZ/GrHy3Pya8kGs8TmmpNgfzj0QY+YZ9x8iQeWppNATgQo5hOCdg0uoRksRgIkkILARyvm6nj53Uv7eAQUJ7+mgMqisQmYk2BHtD7iuRexwtLxHfNj18kCJEACzUPAtSalZ7557h32lARKTwCTX/fNvFBx8mvph7L0HZBJsP887uceMY8Hy+2/mFL6/rEDJEAC2RGgmE/I1jW4hGawGAmQQAoCnPyaAh6LOiUgk2Dx8qiFV07yCPqXH6CYdwqblZFAgxFwrUnpmW+wG4TdIYFGJiCTX+2XRXHyayOPejH7Zk6CtePmcX92H36tmIbTKhIggboToJhPOASuwSU0g8VIgAQSEuDk14TgWCwTAuYk2Lnfuc3jmUeoDePmM8HOSkmgIQi41qT0zDfEbcFOkEDjE5CXRR1Z1VO//VW2nPza+GNfxB6ak2C/P/qBKjHPuPkijhptIoFiEKCYTzgOrsElNIPFSIAEEhJAvDwmv4qIx/aJp25RmIgIYcVEAnkTkEmwV9z9RFXc/At3/Xve5rA9EiCBkhBwrUnpmS/JwNNMEmh2AoiXx5tf/cR8s7Nh/+tDwJwE2zZouMc7z7j5+owJWyWBMhCgmE84Sq7BJTSDxUiABBIQ6Hpnk35ZFN78aor51jkzVc9ZmxLUyCIkkJ6AOQn2yRE3V8S83KOcBJueMWsggUYk4FqT0jPfiHcJ+0QCDUbAnPwqQgnbix5YocY8v73BesvulIWAOQkWITe/XjrE87D51y1Ty9IV2kkCJJAjAYr5hLBdg0toBouRAAmkJABP/CO3jdCx8hBQP3vjQMoaWZwEkhEwJ8HiXpz2+ASPmD+6ZkCyilmKBEigoQm41qT0zDf07cLOkUDjEZBJh7Ll5NfGG+My9UjuQ2yvnrnII+bx1yMmEiABErAJUMzbRCIeuwYXsVlmIwEScEgAXnhTPGGfiQTqSUAmweJeRNiXGQaGfcbN13N02DYJFJOAa01Kz3wxx5lWkQAJ+BCwxTyEFBMJ1JOAOQkWgt6Om+fLo+o5OmybBIpJgGI+4bi4BpfQDBYjARJIQQCTXU3PPCe/poDJok4I2JNg7bj5zo2jnLTDSkiABBqHgGtNSs9849wb7AkJNDwBTH41xTwnvzb8kBe+g/YkWDtuvvAdoIEkQAK5E6CYT4jcNbiEZrAYCZBACgKmkMc+J7+mgMmizgjY9yW89UwkQAIkEETAtSalZz6INM+TAAkUioAdLw8BxUQCRSBgToLFfYk4eiYSIAESCCJAMR9EpsZ51+BqNMfLJEACjgnYYp6TXx0DZnWJCdiTYHlvJkbJgiTQFARca1J65pvitmEnSaD8BDj5tfxj2Kg9sCfBYm4HEwmQAAkEEaCYDyJT47xrcDWa42USIAHHBDj51TFQVueMgD0JFqE2jJt3hpcVkUDDEXCtSemZb7hbhB0igcYjsHXVNvVQy7zKZ/TApzn5tfGGudQ9sh82KeZLPZw0ngQyJUAxnxCva3AJzWAxEiCBBARe+tHLFSEPUT/sG0sS1MIiJJAdAU6CzY4tayaBRiPgWpPSM99odwj7QwINSGDe0Gc8Yn7+vI0N2Et2qcwEak2CxT3MRAIkQAIgQDGf8D5wDS6hGSxGAiSQgIAZYoP9iYvfSlALi5BAdgTMSbBX3P2Eem/4+Z4HUNy3uzfvy84A1kwCJFAaAq41KT3zpRl6GkoCzUXg/TuvUCf2tqkNM4ZWiSK++bW57oUy9NacBPvlCcu1mF945STPvdvx5Ktl6AptJAESyJgAxXxCwK7BJTSDxUiABCISgGdz/7yvVIl5Tn6NCJDZcidgxs13jLxMtQ0a7hHzDLXJfUjYIAkUkoBrTUrPfCGHmUaRQHMT6OxYoT2bh5ZdrJaPucMjiDj5tbnvjSL33hTzP7/lWrX+m1d47l2E2hzd31nkLtA2EiCBHAhQzCeE7BpcQjNYjARIIAKBj1bM1WL+yKqeau41MzyCiJNfIwBklroQMCfB/uvt49WWm/7Jc+8ybr4uw8JGSaBwBFxrUnrmCzfENIgESODDBRPVnmkXKoh5CCDzM3/lDgIigUIS8JsEa8fNL/7BC4W0nUaRAAnkR4BiPiFr1+ASmsFiJEACEQhg8ivEPCe/RoDFLIUh4DcJlnHzhRkeGkIChSHgWpPSM1+YoaUhJEACQkAmv66+d6THK494eQgmJhIoKgE7bp6hNkUdKdpFAvUjQDGfkL1rcAnNYDESIIEaBDj5tQYgXi40gTHPb1c9Jq/VH0yCff/uL1fN++ASlYUeQhpHApkTcK1J6ZnPfMjYAAmQQBwCiJeHZ56TX+NQY96iEMA7EETMYxLsrtsuUE8Pm+z5CxPj5osyWrSDBOpDgGI+IXfX4BKawWIkQAI1CEi8vN/k11+t31OjNC+TQH0J+MXNb/2Pqz1inuvN13eM2DoJ1JuAa02a2DPf3d2tTp06lYpH3DpOnjyp8EmSXINLYgPLkAAJ1CYAr/y+mf6TXxkvX5sfc9SXgJ+Y3/mT3h4xzyUq6ztGbJ0E6k3AtSaNLeYXLVqk+vXrp2BIr169VGtrq9q+fXssLnHqOHz4sJo+fbrq06ePbhPtXnfddWrx4sWx2nQNLlbjzEwCJBCJgMTL482vtmeeL4uKhJCZCkDAngSLh1M71IZx8wUYKJpAAnUi4FqTxhLz999/vxbUI0aMUMuWLVNz5sxRLS0tWmjv3LkzEpI4dRw5ckQNGDBAtzlu3Dj13HPPqQULFqghQ4boc6granINLmq7zEcCJBCdgIh5vPkVYl4+rXNmKggkJhIoAwH75VGIm7dXZmLcfBlGkjaSQDYEXGvSyGJ+y5YtWkCPHj3a0zOch4d+5MiRnvN+B3Hr+PGPf6zbXLhwoae6rq4u9a1vfUtfe+uttzzXgg5cgwtqh+dJgASSEzAnv4qQx/aiB1YorBLCRAJlIOD38qi3f8q4+TKMHW0kgTwIuNakkcW8eNQ3b95c1c/x48drYb1r166qa+aJuHXAK9+7d2/f2PwXX3xRtwlPfZTkGlyUNpmHBEggHgFz8qsp5rE6CFYJYSKBMhAIi5uX+/r4jvll6AptJAESyICAa00aWcwPGjRIXXrppb7Cevny5VpYt7W1hXY5bh1r165Vq1ev9q1z5cqVus158+b5XrdPugZn189jEiCB9ARk8qsIHmyfeOoWvdQfJ7+m58sa8iPQc9amyhKVeBj9n9UPV8LGcF93bhyVnzFsiQRIoFAEXGvSSGIeq9YglGbgwIG+MCC6YRgmqgYlF3WYdY8ZM0a3uX79evN04L5rcIEN8QIJkEBqAhD1+EAEiZhPXSkrIIEcCZiTYHEfT1/2nEfMH10zIEdr2BQJkECRCLjWpJHE/PHjx7VwHjt2rC+LDRs26OtTp071vY6TLuqQyiXE5qabbpJTNbcAF/SpWZgZSIAEciVgTiCEEGK8fK742ZgDAvY9/H8/+muPmId3vvvwaw5aYhUkQAJFJRCkO+si5jHhFA1jRRm/tGnTJn190qRJfpf1ORd1oCL8FQDhPn379lV79+4NbM++4BqcXT+PSYAE3BGAeIeIlw/FvDu2rCkfAuYkWNzHCLtBaI0ZQsa4+XzGgq2QQNEIuNaksTzzQWJePPNTpkwJ5CWe+TR1ICYfALDO/R/+8IfAtvwuuAbn1wbPkQAJuCEgIl62nPzqhitryY+AOQlW7mPGzefHny2RQJEJuNakkcQ84t3RMNZ390sdHf9/e+f/fEV15vn9E/LrxsRkaueHaDFQKS2JyipMQqFu1i/R+bCMBI2LDIKiCMNAMEKQcZUY1FU/ajQqMRgQNBhDPlFGwsKoMRo0xrAsjInRwBCNRVGMFEVh9da7yXPz9NOn+/bpz7n39pf3qbp1+naf7j79OqfPeffTzzm9Nd7ezWd+NMdYuXJlfI5zzjknevvtt13ZyF0XGlzuybiRBEigFIGD+w5FP3tuT/SJOSMdqzyEEAe/lsLJnQZMgH7zAy4Anp4EKkogtCYtJObB4qyzzoqniXRxkZll8CGpvFDmGMePH49mz54dC/nLLrsswoekyoTQ4MrkgfuQAAmkCfzu1fcifEAHn7jXv3nj743wO/fi/HYlfUSuIYFqECjiN1+NnDIXJEAC/SQQWpMWFvPwh8fJXXPJY+ArtuGjUHmhzDHgloNjQ9AfPXo07/C520KDyz0ZN5IACXQlABG/+vyHEwJei3m9jHRb73+p6zGZgASqRMDlN1+l/DEvJEACgyEQWpMWFvPiSrN48eLEle/fvz8aN25cNHny5MR6/MGgV/wk+B5jeHg4FvJZfvZy3CJxaHBFzsk0JEACbgIQ8lqsF12moHfz5NpqEnD5zdNlrJplxVyRQD8JhNakhcU8LnL69OmxuIYlHsIcU0TiK63I1LZt2xIcjh07Fq+3GS56jIMHD8ZuPdh/aGgonkkHot7+1qxZkzhv1h+bj6x0XE8CJNBbAt2EPFxr8sQ9BX1vy4dHD0tABr9KDGs9AwmQQLsJhNakXmL+0KFDEWasQSbkBz/4kZGRVKlkifmix9iyZUvnHHIuV5w36FZnCvsykAAJDJ6AS6jDjeb1Z34TYdYaiB4MgMXvovMecwp7PBAwkEAdCNhBsPCjZyABEmg3gdCa1EvMC/rDhw9HmFt+9+7dsso7DnEMn5OGBudzbqYlARI4QeDpb/w0Jc6xToIdMIj55SHy7QMAxD8DCdSBgK3TEPcMJEAC7SYQWpOWEvN1LILQ4OrIICvPmA4Qlk5aO7MIcX0oAlaUayGPc+gBsbDQy8eiXIKe9TVUqfA4vSTAQbC9pMtjk0A9CYTWpBTz9awHo841BLzLSgqxBUGFbUjDQAKhCLgEuT22FfvYR4KdvtI+CEg6xiRQJQKuQbD0m69SCTEvJNB/AhTzJZmHBlcyGwPfDQLdiiIroOS/iPqBZ5oZaAQB+/BoxTgs7VL3JNYPlPZhAPWYgQTqQKCI3zzqPN821aE0mUcSGD2B0JqUlvnRl0llj3Dsg5ejI7vvjH+H/vV/RPu3fjMllkQ05cX0T65sEdcqY1bMa6s7LsSKddRJHazYZ73UdLhcZQJwF5PZbBD/v0v/c/y77wvzE20yZ2qqcikybyQQjgDFfEmWocGVzEZfdoOAP7hlQvThM5/t/H63Zmyi07DiHcLIrtP/KZz6UnSNPol9I2SFi91exHLfaGC8uMYQ0H7z1141N1PM821TY4qcF0ICuQRCa1Ja5nNx12vjxx+9F8ECr0W8LH/nohtTYv2Oc5dHm2+YmrhIuDVAZGkhL8tWXCV25B8S6ELAWuZRz/79nutjYbNj+fmpOvez5/Ykjmgt9xQ+CTz8U2EC2m/+jDn3dsT89gvOSNR7Gk0qXIgDyBr6Y7yRRFuJ9g/L2vVwAFniKQMRoJgvCTI0uJLZ6NlueULeJZQg7kXow4pvAxoMa63Hf/p0WlL8X5SAfUhEffrt7DOi3845KbIPm/hwlP1SZjfLfdF8MB0JDIKAuNmcNG9dR8zvvPBzCTEPwwnb2EGUTrXOiTpg+18xqiHGNrSnDPUlEFqT0jJf37qQyHmWRR5C3QolLeS7CXrdgGCZ1vkEdv7xIIAOytankcmTo1/POiW1fty0DYkju/a1PveJHfiHBCpGQA+Cffzyv+0IevrNV6ygBpgdlxHNtpn6P0Q9LfUDLLBRnJpiviS80OBKZiPYbsf++G70p/V3RO/e/JXowP1ndqzsWpxjACyCvvmxvGdkQ8qnHvvt3fOzCL6d+OFLnPhdf9O/JPZH48FAAmUJWOv67acti/CzdVTml8d50FnZ7fjPQAJ1IqA/HqXF/IZJlybqN93H6lSq4fKa1c652j69Dn2y620O3mza/lz+27eeRa9CdIdoD7xZhQaBu+ShreuLHobpoigKrUlpma9ZtcLNhJtHZkNALAJe4vfXfia+uT5668XMGULe/sPe6PX1p8f7wm9+3ZVXRw/MnhvBIiqvgxF/Ys5IoqNBIwKhBaHPQAK+BIp0WBed91jnY1HWNUc6MVrlfckz/aAJQEhJ26oHwdJvftAlM/jz57WLEOv4WUOItIWIsR1jjPDAqN8ASX1zxZ9d+WKEn/TneQJfRLzWHa5liHsIfYbuBCjmuzNypggNznmSHq+UwYL6Jnpn0adSYn7vFZ/siP1tN9ycEOPX//26zs3+35bclXLBga/yuRev7XQ6aAR0o4Hlz3ztmXg7GgI0HBT2PS74hh0+S6BLPYOYv/mS76XqnWyn5bJhFaIllwOxJKKKfvMtKfSCl+kS6hDoLqMFhL8rPfpuqV9lY/TpeCDQwh5GQa05iixD1OMBgCGbQGhNSst8NutKbXEJedxU+1Z/OiHm8V/fbPYV7oyJ3+nc8CKOXLEW9GgkdBpY621j4WoEKgWQmakUgW6CXtc3vUwhX6liZGY8CYjVVMQ8DC94o2rHNXFwoyfYGid3jQfq1s5d/8gbsdFNt41YFkOb7Z/L/Edd/ckzmxN6QmuLbssU9PmVkmI+n0/m1tDgMk/Ugw14beW6cXCzwKVG3GsQw1Kv0778tS8khLh+ercNgf0PQQ+Rbte7xLw0FiLqe4CBh2wQAfhXPjbhqlTdsnVN/+/WwTUIDy+loQRcfvNot+HqyLre0ELPuSzMQmet7LDIZwVdf9APwzin643u33WfjH5ZfrK+WywPnFpPYFlcaaBLYLVHW55lbERaBjeB0JqUlnk350qttTcT/stgEy3ksXz0nZei1+5fGQt6WOldH4v68e0XRYvunhdb16UhwJzzsqxjNCz6P5bt1wxdjQJFfaWqUOUyg/prZ/Gw9Uz+o7PDq2UGEqg7AZff/IEHT45+ddfZiXY2T9DVnUHb8w8Bjw87St8t7ZzEL626Ot6OdBLg9iJvdXR/C0u87CfxnZt2xwNfZV9XjOPhBxfZrP5cD9IWDfKDG65wHS5eB7caiHdJKzEEP0OaAMV8mkmhNaHBFTppgESuJ159c9gvvT408nR08tfXRz9aM6XTWFihLlNTYl80KvLfWoekcdCxTE3ZrSGQBgcNENIykIAmgHqt6xWWUf/mXMUkLJUAACAASURBVLMyevSft8ZzKLtmaNDH4DIJ1I0A2kJpG+XjUe+t+JTT6ML6X7fS7Z5fLeIh5l3GNhH50j9DnOMtOdpIWN6xrN1pbDtapt6gXuInln+pmyLIEd92xVBcd2Goy+rTRdDDfQw/eArsu+MLkcys151Qe1KE1qS0zFe87uibCcsQQTrY+eXvffDyziw10ii4PhoF4STbdbzr+wtSIks3Fq6GQjcC0lHpmFZ6XWJcBgGx4KDuSf3CMh5EszoKkiOBJhAQC6u4MeCjaaj79JtvQulmX8N/7FyY6nNt3wzDm+6P7RsbaSsRQ9ivnrsp9XEp16DZ7Fylt6D9fXnFP6Qs7EX6dDysWAOjXA/WgwGF/QnmFPPpuldoTWhwhU46ykR4yrVi3h7SPunLdJNyAyHG0//9X7qxI5qkQcB0lGgsdNqj725wTmeJffDq1yXmJU9oBLJe2aEhwFM/AwmAAOq1ayYm1BMGEmgyARHzqOtbp/5NbMFEG2zfjNLVpjm1wCXkUeZWrFsxbx/wpO/Oi0cr5kFdjC2iPy6ZtbzzRgn1Fg+imF51/uLbYr95CPQsEa/1hSyDh3Yjak5JF7+S0JqUlvni7PueEn7FcjMhtoNJ9uze0+kI5CaxMQbIwvLj+my4NAhoQNBoFGk40MF0m2kBfniwxuOmtz+sZ2g3AanXVszDNQwPgwwk0GQCaB+lXRS/ZJffPNpnjhWpf02A0LX9Mv7HVmzHB/GGH/+nOD2MbdJH+8Qh6owV83evuisW7/r7CKJN3ls+3nl9rmvW6yD+2yzoKeZL3tuhwZXMhtdudhYbfCxKwvCjT3WEPjoCfZPIMtbLDYc4T9D7NBaSh7w4z/Umz+cu75jc1gwCUq/ttKpwEeM3C5pRxryKbAJoG0XMizjSfvNov+E+ydAMAtYVFuWrXU1s34sPN/7Xax5JCXkY22BIs7Pf2P1DiHmtG/KWxUVMNIeOYUjEL0ufIG2bBX1oTUrLfIXbC/uxBjwtoyPYeOvShEjHQBN9E8kybiR0ErjhZEDK79ddHdkBsbYx0P9hicegV1nni0sG1EjnJTEFvS/J5qSXQd2on1JXEU9btYL+8s0pZl5JDgFpByXe8vORxL0AkcNQfwIuqzxcWXWw4hy+8PhJnysxXHJkXwh217c6cKzRBvuF+Twxb9twtONw9YW1Xu+3b9WlJ95EbJmQqOdID5ebNgaK+ZKlHhpcyWx47WZ95iHm5bWsvlGwjBHjWhjlLcOHHgNv8kS99o+XhsMr8yoxHkBcbjdYh6naGNpHQNdfqasY/MpAAm0goP3mIei/+t3nU+23tt62gUkTrxHiW9o3xK6HtNd//ceUcBcBLzH6a+yvha99CEDavDFtRfnqtjlv2bpJIn9424r6vOPaCxJiXqbShlsNGFgmbXS3Ca1JaZkvWsMHkM6K+awbC195RbANh75hspYh7P/t/7wcD3rFk36IxsCFioLeRaXd6+xgafrLt7s+tOnq7RtLGDasOwZ8qhnqTcAOfNViHFeGfhEPdvbjTyLiEcO9RvrvP/z46tgiD2ObTiPpUGegA+SHB0L9g2iWn5DFvjgefqIBXFoDxkS8VYWbJLSJFeVwp4GQd01rKWIe58T55Xoktlwkb02OKeZLlm5ocCWz4b2buCS4bi74wOsP7+DguFFspyA3jI1x4yN9v4I0XPJqWWJroUdDgZsfjQauH8t6bv1+5Zfn6S0B+7aGsx31ljePXh0C+uNR0g6iPdZtNP3mq1NeZXKCPssK3sOvJR/Q5A0Nvubqcq0RwZ73Fh1psN3OTKfrUtYyrkvOoePbT1sWf6F7+wV/+QgU+mMJLvchuEmevWI4WnfjlxKuvXgI0AFv+p+/5c549iY8qCDvT17zzdidN8RMPPpcVV4OrUlpma9waUP8Xn73c4nXVSLqcZPpm0+WcTm46eAjj1deevAJGhb8yop4eTIfjbjGNVmrFDozCDvkG+eQa7QxtiENxD5D/QmIiJGYLlf1L1NeQTECaAel3ktMv/li7KqeCn2U9F26/4WghmuK9GMi5KX8uwl66eNtXFbIIz8I9nj2vwj7kcmT4/4X+xT1AoBP/dBND8d9vrjr2uPb//KGoOrlPNr8UcyXJBgaXMlsFN5NW25kxgNpIOBWY28A+Z8lhkdr2ZZz6xjnEst54Qv786tFLegxZy3mW9bHzluWxtDnnExbLQJ6ej7pzKqVQ+aGBHpLwIq5b/xwe8IyD7FFv/nelkHIo9sJK9CH2Rm7MCGF9G0Q+ujbpf2DQauo4JX+HpZtuMpmWd67rdeTW8gx82II+7VfWRbtuHlmoXNCzOP68MXavOO6tkHUNzmE1qS0zFewtmghLzc6bnrrVqNvANxk+pWYNBiIYUkfbdDHs8toMHDTYgR7UXEPyxR8pOUriPaYRf7DAsJQTwL6YQ51nP7y9SxH5ro8AXsPQNxbtwyK+fJ8+7mnS8ijD4N414Ia/aRrPYQ8+kQJEPVZQht9PdxroQfwsKB/eEDADy5a8ibe1imdH5wP58JYOZwPAlrrim7LeCugj2eX8e2QMkJezttkQU8xL7XdMw4NzvP0hZPrBh4+aCLm824I3NhZ4jeEkEfms46P9foGRsMCFx9Yz8WCnvVWAB+9yjquWP3xcJA3VRYFfeGqVamE1ipJMV+p4mFm+kDAGm0g6Ogn3wfwgU+RJeTRt72zMP1BJWutR//pKndxZYHlHf7w+GGa6aw+U6/Pu0QZAJs1Xk7eDrhmyxGRrWPp//Gggp/8R/zj2y/KfDjAF4/xw0w9+GWdL8R0m3k8BrUttCalZX5QJek4LwSNiPdFd8/r3BTnXrw284aAy42+iWUZYjhLRDtO3XWVDEqFuJZzINY3rizHVnr1OhHpXMEl0jH1Jqz1Vtzh/NoXUfKA66QPvYtutddJPZeYH4uqdnkxd+EJuPzmOW4kPOdeH9HVj2Gd9EsQ6tI3ZsV4q63DoW2rU/vA4i79XlaM/hDnDmXkgrDHoNQsoa2vBw8aOL8+982XfC+lXS4677EIHwjU++LtAQLO53o70KtZ9jTzfi9TzJckHhpcyWxk7iaWSsy1jVdTqOh4IodPnH4KlmVU+DdWnZjtBTcvbiIIbdxI0ohknizABpwDVv+8V3gi6vFa0AaXNQNCXsQdYrylsAHntA0ZrpuhPgToL1+fsmJOe0tA2n1p91xtXm9zwKOPhoCrH0N/rAMs4Fq42mXxo0ffjbR2ViNJn2WVFwEd0nin8y/LIuy1+4/kLY5/eLYkjWMIcNErEkPIQ+Mk9jPz57sEfROt86E1KS3zieo3mD/SoKOS4+tpqOh4pSY3gI1xM1UlSOOTJeol73j4wE0qwVr4IdClQ5MYr51dliq7LxozhmoSQCMsdQSdFKxUqOOwzOAHVzL7FqaaV8JckUB4AtqtEu0e+gKG+hCAcNfGJSvkcSV4A6PftFsh63JPsWngmiPn6Zd4zysF9OV7RpIfxEKe0cZL0KIfOgBTb2pjpb5G9BE6uB4Emmadp5jXJe6xHBqcx6kzk+ImFyGP+VmlcsOPTESwjas6D6sINrkGiXX+taBHgySNE2JY3F0WWzswCDDxVkDvi+VeWyUyC5EbMgmgwdflj2WpFzrGgyAH+mVi5IYGE3D5zTf4cht3aUX6IenjxVCn274iy+8/flb8xl27r1QBJPp8lxFP2nPrLrNuxZJU+y9zzGP8nA3Wtaeq2sfmu+j/0JqUlvmi5AOn00Le9dRuRRBujDo8meIGl6/e4UZ1XQee6G0jKK5B1lIFaxUEvQ3WIhJqoK89D/+XI4DBW+uuvDpV/nmdVxu/AliOLvdqCgH6zde7JG0/Zq9G+jO8gcxr+1zbIIq1pdseuwr/0d+78o51tu93TaGJNI9NuCp2E7aC3lr28XXaJgWK+ZKlGRpcyWzEu0G47rj2gljQ2oEgcmPoG6FKbjVFrxuW1t8/eUH8dTd9LViGyH925lA8bZc0hvq4eiCwuNxYVwzralM1q4W+nrYtyywMttwh7qV+Z8UU9G2rLbxesdxKW0e/+XrUCZe/vM65futi2zsI9ayBsXUQ8fo6swS9bf8tA9mOj1FBB+Bt/a+eeqxzaIh3SYO4jjqoczGOhdCalJZ5B+RerhIXkb1XfDLxdVZd0WWaKlTgOljjs3jhJj/w8+9mDuLVM/HoY8BaBWu8dG640fFRqedferOTjGK+g6JSC3iIQ13GVGO6IcYy6sJPNi+L/eRhqZKB3rruY5mCvlJFysz0mIBYb6W9y/Kbr3t/0GOMfT+8FfN67JZ+4+Jq58StEFNXQgvEX4adc1KQb8L0HUQUxeOi7MOJbf8xDlDaerxxkO1i0BNBL4Y5a5mnmM8vWYr5fD5Bt8rNj5tXKrWNq/5arQwQ+E7bp2y5kUXQW593NIb6Jscy3mZgPQIaQYzuRyOIH6byYhg8AViVUKeti5U0xNYK+eBT96TuBRxDOrvBXxFzQAK9JaAtuBD0MGRI24dviEhbibhprga9Jdvbo4thTsoKsfRjG29dGhuj9Fg46evFWIfc2bFj4m7a25z37uh4Kyui3s7EBwMP9A2MfAjQBS9f4Z5aG4Le+tzTZz6/3Cjm8/kE24rKiZsdAlRuahs3WcDkCXr4zMHSboMw043lM49elckPIhBWXWks7PH4v7cExL3GZZWXN0xifZQYg55dr2lpne9tWfHo1SGgrbiYnle3dzB2aDHfxCn6qlMS/jmxYhz92EObX+mUof2IEvp86Z9c0yzXXcwLQVyjHcAKcW4DrtfVz8P1Rtd7LENDNCnQzaZkaYYG55MNPVjTCnj8b5MlMstCjxv9/dffSmDFjS6NJazvLnaudeDZxDccCTgV/APuKA9rkZEvFNsyhKCXNy3yICDliWMxkEBbCMgbKyvmt19wRkLUuARRWxhV8Tqtuyf6KylDzB8v7ZluE3Edum+ThzfXtJZVvOaieYIBxwryrDdLWtDvvPBzkX0j1cSH2NCalJb5ojWzRDrcsFrI46aVm1ti/cqtxClquQtel9mbHP/RUe17fiRxTXhtaUWgsOsW07qbQNnzPygP1/cRZICT/Yy5Lh+Xdb7Jb6p6Xhg8Qa0IiN/8tVfN7Vh10V9A2Ni2Ut5y1eoCG5pZ9PEixm0s/ZOrTbS6APuKi06TUFnrPOpynqB3CXnss2dzs2ayQRlTzJes6aHBdcuG68lbbna5ybWY6Xa8pm3HKzPbSeE/vhb7b3fe3GnYrMVW2CGOX2H+8OyOj57eJsttZtzvOgPmruko5e2KfeX8060PJbIovpZSdih7BhJoAwHxmz9p3rqUOLSCSMaftIFLHa5RW5Wlj5cY0zG6+jmIVkmDuGlWeSk3l3UePGC4Qz2GYQ9pIPDx38UKVnr0IeDcpBBak9Iy34PagSdsfaPq5UXf/n58RrqBnBgAg5va3sDCK2ugMF5fYhtmuJEAyy6YihDUMUWhUOpdDCs6mNuyRGON8nSNFbHlggcvXW68R3pXXjxytQiI37xLzG++9tuJ+4quNtUqOxjuXrt/pbPPt+4iaB/hOiV9XNw2NvwL5llv4m1f4foP455m1SRBTzFf8j4ODS4rG3pQi376hvAcfvSprN1aux4Wei3o9Y1r3TIg9OByI2nuWLgggkVLB4h68d0WYUj/a02oN8vg7vpy8e+//1BcXtYqj7KxwZabFfs2Pf+TQJMIZPnNv/aPNyTEPERP0wYD1r0c5y++rdMvSf/kGsQp44ckDSzObQhlBP288femmIKba7KMOjIMrUlpmS9QC1AR8RoIrzshPBHLKyLdqOrBMPpGxoAY+9GjAqdtTRIwBE9xx5CGTsS4xLDIYxv+Q+hv+59jo6Gb0iPkXf7XFIa9r06u6SjxcOt6KHto5OlUhqyYRzkykEBbCGT5zcMFw1ot6TdfnVqBhzAZ9Cp9l2usQ5OtzEVKA/08dJSty/Y/NBbS4bsydgwJ+IJ3E0KrxfyxY8eijz/+uFQ5lgGHCqWtxrbS4b9UPGRKbmTXq7VSmW7ZTnhdiddo6Lxcg16xTYQ9Ylh7n1o12fmgZP2v2zjQuJ/Vx2V5+cOPr47+tGF+osxQbviIiv3KJR62dNlimWK+nyXIcw2agPjNnzHnhEVSuxnq2VDQ78CgxDB4Aigzl+B0aQDMqd5E32/fUhDjHQx4YiAVHQXNpYPlK1Ma41sMdQ9lNGneNdfCMj88PByNHz8+Hv17yimnRNOmTYt27dqVd12pbb7gUMlc4j1rHV4JjZu2IR7A6UqDyspQnID1n5aBrFbw4T8sum//YW/i4OLDLenpapPAE/yPvV8wEBbsXe41J399fcI9yvUmRco7eEZ5QBKoKAGX3/yBB0+O7yP77Qb2J9UoxLOXP9Mx4okxz34bAHoAwpWhHAHcFzKWRMQ8Ygh6mdq43JEHu5evJu2W28qL+SVLlsQifmhoKFq7dm20atWqaNy4cdHYsWOjPXv2dLu+znYfcFaYuMS5zzr7tNnJFBcyCVgxj8GQ+FlXjCyxbgUixXwm6mAbwFzuC/3pbikjxIvunhd/GVFOastJ0mI9Awm0jYD4zWOMFcShzFXumhWFrjaDrR1wnbXuNfa7AGgP+eA1+nKCaId412K+7oLeR5MWIVhpMb9z585YyM+YMSNxLVgPC/3UqVMT6/P+FAWXJeTlNRAaULgU4ElbhEtWjH3Y4OaVSvY26yYjM5tA5GFZRJ+OJQ2Oai3zSMfQewIudxkpI1jpp61aES1d+0RchraMJR2t8r0vJ56hmgTEb15Eop4Fyo5JoZFocGUI949LZi1PWeVd7jXUAGHKqWmCvqgmLUqv0mJerPKvvvpq6nrmzp0bC/29e5PuFamEf15RBJzL7xeCXA9yleOjYl2xcnumoMdDAUN5AlawW5/39x+9IeXCAeu7fGjIikpa5suXhe+etuxEpBeJbTn7npvpSaDOBNCvwOIoftj0m69maeINirjVSOxyr+EDV9jya5KgL6JJfehVWsxPmjQpOvXUU52DXtetWxeL+Q0bin1Ypgg4a5XPej0G6/Dzt9yZKeRhqefTuE81TKe1lnUrxjFY9p2F41MWeklnrb609qYZ92qNLbsiIh5pKOR7VSI8bp0IwJ1ABsFCKIrfvP2SaFb/VKdrrWNeH/3F/kLuNTTo9aZ08wQ9yqYuoYgm9bmWyop5zFoDV5qJEyc6r+eFF16IxfzSpUud2+3KLHDitvHSqqtT4nz303faw8RW+pvOuzWV1rra8Ik8hc5rBcrFikCXIHdZgSEK4WOKHwaO4bdnZIPzDYtXppi4EAE8UNmyy/uP9NpFqtBJmIgEGkoAVl8Z8Ee/+WoVsrw5wdsTscgjpntNf8sJ5SDjS7QfPR6E7Uxp/c1Z8bNladLiR0imrKyYP3LkSCzWZ86cmczxn//t2LEj3r5w4ULndrvSgoNY1IMs7WwBmAoMAkQLDVjbrWjP+s+nclsC/v91+YgYtKIP5YiPFcl2CHg7jZsuI1iz+KDlXxY+e0hZSIxpRjHX/L0PXh69+exF8T2FBy6UpS1Pn/MwLQk0kYBMUenym0fbJm8fm3jtVb8ml4CEmEfQ/Qz7mN6XJAQ9BiFrMS/LdRD0VpOOllhlxfxHH30Ui/VZs2Y5r/HFF1+Mt8+fP9+53a4EOPnN//u/7og/ERyYSk/fjDK1nmwXa6NOI8u4ca3Q5ytQWwL+/13WeZQHhKD4xuOoKAeUV56Il7KSGOVDVyj/Mim6Bz4WhbKCi4BYsNDQ1uk1aNFrZToSCElArL8Q87hnMJWr9EMS6/Yv5Ll5rGwC8pAlghGx62OQNORlMwy9BfeKDBrX5YLlqgh60Z2uOCSPyop5scxniXmxzC9YsKAQD4BEsAMjpXG0QhCWetlmY5cgxCBZWS9xoYwxUS6BrPJCmeABS1iXiSnoc9GPaqN8DRkD+CDmb7tiKBYmaHwZSIAE8glYCzA+tKb7Ib7RyufXi60yNaI8XEEwMlSDQJagx32EgA9RVi2IJg2Vr8qKefjM42KnTJnivNatW7fG23185rMG5kEUPnnNNxPC8NmZQ4nGUzekcOuwT9+umXCcGedKbwJZgr6bgMdUbhDsKCvErvQU9N7FUXgHWOHFWoJp3Nj5FUbHhC0nYMWJFfMcLN7fCqLLw5ZFf3PCs2UR0GUk/Q5ieTOMr+9i4oyqhNaIeQA/66yzojFjxjjZb9q0KRbz+JBUkTBhzF/HllwtyrEsFg64ymixhwEtNq38dw3EtGKeX3wrUirF0+BBTFydpBxcH1KRMhQ3Ke3WgbcnEPaSRmIIeobwBKx10fVKOvxZeUQSqD8B69KB7zNIu4cYbSFDfwiI2xOEoS0HlIVLD/QnZzyLJaANSFrIa0H/0Vsv2t0S/yH4kabXwr9VYh7+8Lhg11zyGPiKbfiAVFZAYcjrfgzC040hlt9f83edXa3PO4Re1lcsXVYRa/mlmO+gDbYAH3pY6cEf5WenahNxjnje+Hujcy9eG381zmbAPrghPR7GGMIS0NYRLOsHq7Bn4tFIoFkEtIDEvSOuHboPQ3vI0HsC2iih+WOZD1W95+97Btw7cInCjFDyJWUR84hhof/T+jsSh4V4hyuOTidpXekTO5f80yoxL640ixcvTuDav39/NG7cuGjy5MmJ9fIHIt4WDL4+qW9EGZgnBbXv+ZHU9FJw04D1V+8ny7ohdX0NloMrpTR6E4O/i7tL0LsswtZCT+t82HKyFhIIEgYSIIHiBLSIxP0jfY/EHARbnGXZlPoNiXWvQTmwDMqS7e1+3QQ9hDoEPUQ8NKAV8a7/ohVD5bxVYh7Qpk+fHlvgYYmHuN+4cWM0YcKEeN22bdtSXFE4roKwYh6fybbptl4zJeWCAUH/r49/NXp9/emJxjR2+9h3yCkoaZVPFUtPVti3Ifa/CPsrrno6QqOsg2vAMh/ANKHRLdspw1wPVKM7A/cmgWYTsD7AVkyKi2izKQz26uSB6uwVw4n+H0Le9YZ+sLnl2TUBCHrcQ7DQyxeVreYr899a9fU5fZZbJ+YPHToUYcYaXLj84Es/MjKS4pYl5FFgYs2QWGbZ0IX5mxtPdU5vCJEIH2zMcAPXDsR5X4ClKEwVTU9WiFiXGNxdLjTYvmzhT1J5sNZ5llsKUekVMvMDLIr40cWmNEru2FIC1tVm0d3z4n6spTj6ftn67aI15kFH6Lfzfc8cT1iYQBlB381aH0LQt07MS4kdPnw4wtzyu3fvllWp2FUA8auRDenBrNYNR0T9ntvHRLDGi0D0jSkIU8XSkxXgbMtGTpQl6LFeByvm7XadlstR4XEFVoRAzGMdAwmQgB8BsQzLQzGECUN/CAhzeYgSQyBijN1iqA8BcZfKs9BDK+L7KBLgru1y2RatCOPxaEJrxXw3aHhSEsgSY/ArAp6g9Y2I5XcWjk+ll/3gVpPlsmEFpP5PId+tlMJtt2Ie5aWDS9AjjS4j63PPQbCaYHpZP/zorWjwcP/hh4fkl1f8Q4SpKM+Yc29nakqdnsskQALFCIirjbgK3LFwQXyPoW+D8BitoCiWi/alEjdButc0p+xhUMIbY3zzRLSejmPDrxkYK1ePe02nxTL6utEEivkMet1Av/XYXyUEvctnXo7xq6cei+BT7RKEWrzLMtIhPUP/CLh83m0Z2OlCUV4Q9JLOPrBRzGeXn314AstfPPTT1EBzuYckxmwCG29dmn1gbiEBEsgk8PxLb0b4EqzcT644T4RkHpgbMgmIFReWeTtOAYZADnrNRFf5DXt278m9l3B/ZbnQuAT9aB6mKeYd1cUFGdZCHbasTop5DIh1NYxYp5+4IPx+8d3vxj7z8pVYuOHAqksRrwn3f9mKcdfAY/jKy0MX4h3XXhBn1CVOReT3/0qqf0b7FgMss+4f13oIDntPVv+qmUMSGByBLFdQ1/2FdbzHwpQVjA8Q8i73Gg46DsN4UEdxaUXX/eRyZ3O53GQJ/yLXRzHvoGQLSNxrdNJ5F/6XhGUeT9jvrfhUPA/p0E0PJ4QJGkUJeAq3Ljr8SITQGWxsBaa2ukvOfv/9hzpTjspN+8xDD6Q+HoV9GbIJ6AciLI9Mnpy4Z4RtXkyxkc2XW0hAE/AV8nLf8R7TFP2XxXKLCTLQ7+Nr72jvsMzZa/x5Vm0P+e6Q3C8w7lk/ehkr4RL0EO+yL2Jt+PW9Vop5BzFbQC4xD3DysSEtzocf/6fYYqgLCMsILiGPfTmK3VEIA1gFS7oVmVbQ42n6zZlfStyA+Lqv3U/70g/gUip9SvvQBHb2foGIQEMHn174JGa5BlBsVLqombkKEMgS8nBZg/DAD31cVjrcYwzlCEDcoW3Dd2hcHyUsd1TuVRUCVivCEAzRrgW9iHlXnu2MiaO51yjmHYRto+Z69QFwWeIcLjf7Vn86wldi8YPFHl9206JflmmVdxTAAFe5hCYEPVygJMgNCGvy7actSwl5DOxkyCYAnvrhB9O04n5ApyciXvbWU1JmfYHP9bAt+zMmgTYTsG+Z5R7DgHIRGYjluxkwVuAeRDrco9svOLHMe8y/Fmn2aN9cs9rR6OPPtUp7WK2IMkfA4NjhR5/q3GNyf9m8i5bA/SY/m6bof4p5B6kirz4EHKaUEmHuG/M1mwP+gFfBOq9nWdGiE8tWiLq2s4HOLkTXIGL5KvJ7y8cnZtPQ8zKL8MBra9uAQnzQfz6bObe0l4DrXoGAsFNUikXQtn146ygPALzH/OqRiDPEj024KmHAQL+hDUR+R2bqqhCwlnlr+EUflveBQ/3Ah3qC+7VsEE1adn+733+yK+r43z4tSUOnr0WDKyPoKeQ1zWotdxP0VsDLf1jpIeT5tiW7PO3DkFjl8Roa950OMp2bCHlpFCEqdEeJZduI6uNwmQTaSMAKBdwnco89tPmV1D0ERvZhG22a3Gu8x4rXIi3y8HZD+giJ+fa2OMsqp7SGX5dWzMu/fdgeT+YvdgAAIABJREFUzRswrUnzzll0WyPEfBGxYMHB7x0j07tZ5+Fuww9EFK1Og0sHQQ/LiTS+3WJ0emi0Uf4oY043li47KxTAFH6kYLZv1aWpHSAiRMgj1gOIbCM6GotG6sRcQQINIGDFvL5HZGCmCHUR+q5xQ+Jqo/dvAJ6eXYI1BrpcMcGZof4EbFnjPhJXm25XN5p9Xce2mtSVxmddI8Q8Llg/WaOA8MSlLRMucHgIgCiBnzx85mFthP88LLUQ+hR4PlWpGmm7iXot4vWDHAQ9Q5KAfYUPH1Iww/1iLRJWiOAe1F99tQ2hr0UkmTP+I4HmEbB9mL3H7KBy2W7v0w2TLu242jSPUvgr0tZWTo4Qnm/VjqjLW7Qi+qe84DIYY9/RBJcmHc3xGiPmXbBF0GObBYfCw3YUiP7pB4DRgOW+gycAYQ83GvzEsiIWLghSLeaxTHebv5QZeNm3GzuWnx8/8OJ+0dYMK9SxHcJDB9f9qbdzmQTaTsCKDH2Pgc1r969M9FW4z9BfWTGv/ebbzrTb9es3hnSv6UarGdtd/ZVoRdcV6jqitaK9P1375q2zmjQvbZFtjRHzuNgs6CiojeedsCbaBlMXDtIxNJ8APgqCeYTxJsYKer6NOVH+rlmCwEq+nIx7DcHVMOKegvDQwZVOb+cyCbSdgO2b5B4TLmKI0H1WfK/94w2JB2/tNy/7Mk4T0AaGnRd+LsFQDBnpvbimCQTytCLuQ7z1svejvu+wbbSBYr4LwaxC0gXhWqaQ7wK2QZvRiMNyLB8G0YKe7jYnClo6M4kx8BWuaHLvoDFzudZgO9jaqb1s2hCNYYOqJC+FBFLGKHuPwG1Nz4ct96JLiMLKLG44ROsmAL7CkO41bkZNXQsNUFYr2vuyLCOK+QLkfAuJQr4A1IYlwZyyaMjpbpMuWNfA198/eeJjKtL5ZcX4YBQGv9qAe0zvQ6FhCfF/2wnYt1e4Z7BOB0xR6RL0VozCb573mCaXXNbGBXx/RIwWEnP2miSvJv4rI+hDCXnwpJgvWKuKFJSrsSx4eCarOQFYuSA889xtxM++5pfqnX2MHZBODTGs8kd2PekcY6IFugh5mZJSTux6uLYiRdIyJoG2EkCfpe8nLFtBjjdeeFjGR6S0m+DmG6Ym7lmIe95j2TVJOLveamA6Xob2ECiiFSHikS5koJj3pIkCQKN2zfi/il+rQFiwkfOE2NDkz7/0ZoRPpLvcbSBi29io268kg8Ou7y+Ia4C2ZklnKLH+QiU+vCHBJeRDWjfkPIxJoAkEXPeYFvQwQsj0r4vuntcZ84MpY/UDeBvbrqLlj/ZH2i37RgMM+RHBoiSblU60Iu5B9Fu91ooU8yXrT2hwJbPB3SpEAB2jfFlx2qoVcceoO0QsYyBomwI+jqbHEGAZ32RAQ6c7QekMEeOBCK/+z5hzb3TSvHVxWjSE1rVG9uHDdJtqFK/VhwDuM9d9g3UiLi6/+7n4Pvv2or/cq/gqs227KErd5PHmUNoixJpb29p7NyGu7QeB0Jq0UbPZ5BVAaHB55+K2+hCAFVksXd+/+++i71x0Y6JxR0Pfps94WyGPD6blCXndKRZZhtWDgQRIIJtAlqC395d9o2jbrk1DN2SfpKVbxE1J2nwwhbhHO8+3GS2tFAO67NCalGJ+QAXJ01aHgFjnT/76+shl4UIj3zYrF0Q9rPQIVkSU/U8hX506z5xUm0BRQZ/nN89BnOkylrZexDxivKFlIIF+E6CYL0k8NLiS2eBuFSSgrTVwt8HHkfSrV7HatG1ArJ5zXwt4vPKHMHd9xEank2Wkp2tNBSs+s1RpAhD0cK2R+8gVY7pYeZtGv/n84kQ7f/aK4ZiXiPnlP/1t/k7cSgI9IhBak9Iy36OC4mHrRQCvWqWB/9GaKZGdHQKCvu2WLogJCHMJsHLBRx7+8vpT80iDHwbuUcQLLcYkUI6AiHo9ZgX3F8aq0G++OFO0V6+vP73z8IP2noEEBkWAYr4k+dDgSmaDu1WUgJ4lQtxtrA8qBH2b/Oe7FZU8/EisZ7Hpti+3kwAJlCcg7RXaKrHMI0abpd+olT9Ds/ZE23Tvg5cnWIEXWTWrnOt0NaE1KS3zdSp95rWnBPDKVYQp3G0+MWckmjf+3pTLDT6q1PagBw4Ls7Yz4fWTQD8JiP+3tjZToLpL4PJ7HkkJeRkT5N6Da0mgtwQo5kvyDQ2uZDa4W4UJwNr12ZUvdgQ9RCoEPf3n04UmQkKEvP1QVHoPriEBEghJQMb6wC1QW+fx0TeGvxCAkcYyAi9MuctAAoMiEFqT0jI/qJLkeStJwGVxvv6mf3EK+kpeQJ8yJSJeYggLBhIggf4REFcb/fEoiNSDWyZER3bfGcXTyn7wcv8yVMEzgZHlA0bgw0ACgyRAMV+SfmhwJbPB3SpOAI2/tTrDWg9feWuhb+sHRlwPPBUvVmaPBBpJAG2VyxdcW+pF3DcSQBRFmGUMUwejjcYP7TJcIbHuq999PvHWAlzoXtPUmlCv6wqtSWmZr1f5M7d9ICCvr8XqjPiib/88ns3GCvo2Doi1rkh0selDpeQpSMAQgJsIhLoW7nnLTRP1EPEuI4tuo+84d3k8M5nmwkGvpiLx70AIUMyXxB4aXMlscLeaEHBZ51//9R9T1vmaXE6wbLqs8nSxCYaXByKBQgQg5LVALbrcFEEPy7sW7d2WIerxQUC61xSqXkzUBwKhNSkt830oNJ6ifgTEH1Vb5zHP+sjkyZ1OpH5XNfoc6/n4wQZWegYSIIH+ESgq5OFO4hL5EPTwp7cBc9fjI1VVD75CXoQ+BH3bPvxX9bJsc/4o5kuWfmhwJbPB3WpEQAtX/fXFDZMurdFVJLMqH3GSDjG5tfs//XCDZVjqGUiABPpHwCXS9fSUuC/lbRmEP2a3saIegl4H3b5VWdBLuyUCXeLV5z8cu0FuGroh9pmHcJdtOkY6Cnpd8lweFIHQmpSW+UGVJM9beQJinccXTnVnh+VDW9dXPv82gxDych3o1HQnV2Qwr8vFBowYSIAE+kMA/t5WmEPcW7dAO44F7iV2P7HOS5ug46oKet1mybKMW8KXcnENb/z95xJtm6STuO1f8u5PTeVZuhGgmO9GKGN7aHAZp+HqhhGAgD1p3rr40+m6s8MraXQedQlHdj0Zd+a4Bu0qJB0cZn7oFroJhm77czsJkMDoCFirvFjY7YO2y/0ta18Id922yfK/33P96DIbeG8YHKS9kli3W+/e/JX4Ou7/0o2pdJJeYr1f4GzycCRQiEBoTUrLfCHsTNRWAjJV5Rlz7k11eFXr7LLKCJ31+2s/07HM4ZPv0qkhLmqpootNFmGuJ4H+EMiyrstbRH2PWhc4l6891iFkCXoI5KoE3WZhWSzyyB/elOIhBC6QNh0eAuybyKJtXlWunfloHgGK+ZJlGhpcyWxwtxoSkKkqb7tiKCXoxQe9qpeFB473VnyqI+Qxo4Pt7OCH2i3o8QMiGLrtw+0kQAJhCVgxL2IcZ7FvzlzWeVjy9TH0NI0iiMUyL3EV3kK6fOU1WeR1+wVnpNo2iHgEu7+s18fgMgn0k0BoTUrLfD9Lj+eqLQF0lHC3kQ5OYnR0COggq/YZdVjVfjvnpETnve7Kq1MdXpFC4dzyRSgxDQn0jgB83LUQx7IOYnSQh23EMhBW0llXGztVox5XI20c4kELeivGZYwPBrNuvvbb0X1fmJ9q12C0EHcapLNGDGHCmAQGQYBiviT10OBKZoO71ZSAvMa+ZNbylKDXHay2dA3yUsV/9MCDJycEgO3QpFPMy6v1x4VI4MDXPGLcRgLhCdjBr+IvL2cSl0At5u1AWCvm8YAgA2HlOBgLBPGuxfygBb31l4dlHa4ytj3T/7UbDq5Nb8OyCH25bsYk0E8CoTUpLfP9LD2eq9YElv/0txE6yscv/9u4o9t7xScTQhmi3naw/b5gdMQi5N9Z9Bf3GuRtx/LzUx1akWna7Ot7KxD6fY08Hwm0kUCez7vwsA/e2tUGAnbzDVNTbZa0W2i7YKnHQ0OeoB+Ea2G3L71aoe7yibdpirR9wpUxCYQmQDFfkmhocCWzwd1qTACWL3SO2t3GCmZ0jINyt9FCHpY05EX/7NzLRazyrlf3dmBdjYuUWSeBWhGwPu+2rZE3iGKdP/fitYkHeAx+121C1nJ8nh+eHY+3gauettLDat/vqSthRbdiPOv/Rec9lnIvsm462JeBBAZJILQmpWV+kKXJc9eOgIhbPfe8dWVBB9lvdxsIed3h2jy5rPJFXjNz4Gvtqigz3GAC9gNQEN16ECwuXb9J+8zXnkmIYDzQi4C3Ljey3hVjNqx9qz8dwXgBcd9vQf/h3t8krkML+dtPWxbPYvOP598Uvzl1vTm0Ljkuy32Dqw0vrYIEKOZLFkpocCWzwd0aQEAGw1bF3cYOWrODXtE5h5qOEq5GDCRAAoMh4HK1sYJeDA6wzn9izkhKBP/qrrNjQQ+Dg4+g1yIf4t6+FQhNBNeqP3Zl2zAI+l9cd2bHiIHpg3HNNris+rDUM5DAIAmE1qS0zA+yNHnuWhKQV9l67vlu7jboeHrZgWirvJ5THh0wOm9tySqaFxkjIK/sEePaGUiABAZHwFrncY9D0Iu/O3IGg8PJX18fLbp7XupBHn7zEPESIJoh7LG/r7iXY4SOtYiXhwhXO4Y3DWjvnrx5cizk7ew9LiGP9o+BBAZNgGK+ZAmEBlcyG9ytIQRkoJmee966tqAT0iIaMzD0ctAVBL2eU146wSev+WYiH0U7M05H2ZDKystoFAGI7zzRHfu7q/EyEO+6HYKFOy/g+JjhBg8NeedB+1I0oN2zs8tk7Zt3Tpd1HoL+gdlzo6W3/O/4kDgXRLydAUcY9NKoknVNXE8ClkBoTUrLvCXM/yRQgAAs1OJus3Xq38SvemEJEwGN2OWn3suPlbjca9AxSicmcZHOTB5WtFXeWr0KYGISEiCBHhDoJuh1O+SyaMNnHGIXbUG3sTNa3OsHhW6XhePaWWi67ZMn5HFNb9/3N5EdyC/tWpG4yKD/bnnkdhIIQaAyYv7YsWPRxx9/PKpr8j3G8ePHI/zKhNDgyuSB+zSLgPZNFdE7bdWKhKC3VjF0OL3qUFwd4fO33JkS80XeDtAq36y6yqtpHgGIbJc7ihbyWUYFK3xhZChqORdxb4mK9d0KeHsuvZ+eKMD1USzkH9eIc0rYeeHnIgx6tcft9r9X7a7kizEJ+BAIrUm9LfPDw8PR+PHjI2TklFNOiaZNmxbt2rXL5xoin2N88MEH0dKlS6OxY8fG58R5v/jFL0aPPPKI1zlDg/M6ORM3loBrtpcfrZnSEfS/WzM25bOKTqdox+kDznbi6AR1wHmLdGi0ymtqXCaBahMQUe96mHe5peSJXl9XQBHwdraYvHMITWmvYO2HS4+2+ss2Lfaxn4xXwsDeDZMuLSTofR5UJG+MSaDXBEJrUi8xv2TJklhQDw0NRWvXro1WrVoVjRs3Lhbae/bsKXTtPsf48MMPowkTJsTnnDVrVvTEE09E99xzTzRlypR4HY5VNIQGV/S8TNdsAuhcrBXbuttA0NvODR1Mt9fbZchJJ4iOsWzQU9vhjQP+M5AACVSfAIQ9fhDBPgJbt0/dBH0ZAY/jW1EtbVVW7Jotx7ZNEPUP3/S9lMEE58L198JoUv1awBzWgUBoTVpYzO/cuTMW0DNmzEhwwnpY6KdOnZpY7/rje4xbbrklPud9992XONxHH30UffnLX463vfHGG4ltWX9Cg8s6D9e3j0ARd5ss//kiLi9liFqLVtFj0CpflBTTkUB1CRQR8nhLl5UOYjgraOHfbVkEvKudyxLxdr1Y7mUWH3FpRIw3o3h4kX1gOMFy2fYv65q5ngRCEwitSQuLebGov/rqq6lrmjt3biys9+7dm9qmV/geA1b5MWPGOH3zN27cGJ8TlvoiITS4IudkmvYQ6OZugw7G5T+PzrRKwb5loFW+SqXDvJBAdwIY1GpF9rzx96bWyZtBCG2IbrtPlkueTWf/F7WIu9yCRJR3iyHk0VZJsMeyLoaSjjEJVIVAaE1aWMxPmjQpOvXUU53Cet26dbGw3rBhQy4n32O88MIL0ebNm53H3LRpU3zO1auLzRkbGpwzU1zZWgLd3G0ABp2myxJWlVfBtMq3tvrywhtEwApz/MeXYGdM/E5CsGtDgkvQYz9XsOId6dCGFZklyx4PVvWsga/dBL22vtuBwBD3DCRQZQKhNWkhMY9Za+BKM3HiRCcbiG5kDANVs0KIY+hjX3nllfE5t2/frldnLocGl3kibmgtgSx3GwFy7I/vRu+//pZzJoYyHaEcN1RMq3wokjwOCQyGgMsqDws83hyOm7YhIeatWIegt0I9y9AgAl6s+0Wu9k/r73AmO/rOSx03GRHw9sN3sl7iXS/9r8SxrJh3+dsnduAfEhgwgdCatJCYP3LkSCycZ86c6bz8HTt2xNsXLlzo3I6VIY4hBxcXmwsvvFBWdY0BLuvXdWcmIIGCBFxfTX1o8yvRv99zfeez45hazXaa6BzRmQ4quPLNeeUHVRo8LwmUIwDxrdsWsb7jzSEGi+ptWLZiHK41Oo3sXy43yb3wUTst6LEsX6624h3fzNh7xSej1x//5/grtjJD2OvrT4+GH/+n5IGjKJ4NR4Q+YrrZpBBxxYAIZOnOgYh5DDjFiTGjjCu8+OKL8fb58+e7NsfrQhwDB8JbALj7nH766dG7776beT67ITQ4e3z+JwEQsO421141t9NhSceFeGTy5ESniQ4Ugl5Ef79p6kFlWKavfL9LgOcjgdETsGJcW9bhRmd95/V2nB3ivhdiXrd97978lVSbaL+evW/1pztp8FG+k+ati6SNchkZtJDHMlx3GEigygRCa9KOZf7AgQOxfzp81PUP68WqniXmxTK/YMGCTHYhjgGffADAPPdvvvlm5rlcG0KDc52D60gABCDo0fE8fvnfdjok3ZnJsmueZNmGuF/BTveGvLs6zH7lh+chARIoRwAGAS3Gtfse2qWbL/leRxTjPteDSHFGK+ZxvNEG3aZlLb+z6FMJVxtY6mGdl/Qi6PEG0QbrYgMxD198BhKoMoHQmrQj5rds2eJ0Q8F6+LvjxJjf3RW2bt0ab+/mMz+aY6xcuTI+xznnnBO9/fbbrmzkrgsNLvdk3Nh6AjuuvaDTEUmHhPi3s8+If7DA/98lX4vu+8L8Tuer08lyr0G6/PzhX8tAAiRQPwJ2gL21vLsGuev73frchxDzh7aud7aF0sYhfmfh+NRHoyDo4Woj6SDoMe5IBwyCtVZ5+strQlyuKoHQmrQj5vft2xfB8m1/WI9w1llnxdNEusDIzDL4kFReKHOM48ePR7Nnz46F/GWXXRbhQ1JlQmhwZfLAfdpBwNV5oSOCy421LMmgM+mwdAzB3+vgssrDgsdAAiRQPwJZPvP6Suw9D+u8vImz+2dNT6mPV2QZIly3bXr5o7dOTDHpmtUGgv69FZ/q7CttIizvLos8rfJFSoNpqkAgtCbtiPluFwd/eJzcNZc8Br5iGz4KlRfKHAOuPTg2BP3Ro0fzDp+7LTS43JNxY6sJwPquOysI+TPm3Bu/3sZ6bEcHhg7O5T8q+2JbL4Nr0CssdwwkQAL1JOCyrNuB9eIGKD7o2t3GuumEEvMuA4e0c2gP0RZCoNv54sXqDlGPH3zr8REpWW9j+srXs962MdehNWlhMS+uNIsXL05w379/fzRu3Lho8uTJifX4g0Gv+EnwPcbw8HAs5LN89eW4ReLQ4Iqck2naR8DVaWkhLx0YhHqWkMerZfiL4idWq9AkXe41HPQamjKPRwL9JSBv+rTfvEuQux7kV8/d1HH5k/3tbDdlr8YaOKQdlBjb0R5+9bvPRzJzjRXq3f5TyJctHe43CAKhNWlhMY+LnT59eiyuYYmHMMcUkfhKKzK1bdu2BI9jx47F622Gix7j4MGDsVsP9h8aGopn0oGot781a9Ykzpv1x+YjKx3Xk8BoCMhsNNJJ4T+s3Vmz2kg6CHjM4ODqsORz5iEHddlX7Rz0OppS574kUB0C1joPYW4FPazzug246LzHUkLe7lP2CmGQkHZO4jxxf/LX18fTUbraQtc6tI8U8mVLh/sNikBoTeol5g8dOhRhxhpkQn7wgx8ZGUnxyBLzRY+RNSBXzitx3qBbnSmkZyCBXhOwnRQs9QiYax7uNtKZSQwRb6dlc3VYWCei3nUN6LCLBt2Jy6t268tf9FhMRwIkUC0CLus82ge40MAnHtZ2pHn913+Mzr14bWq6SrHKW/ecsldp31aijYRbjTV8SJsoMaz0GMya1x5yPvmypcL9Bk0gtCb1EvNy8YcPH44wt/zu3btllXcc4hg+Jw0NzufcTNseAlbMo9NCgCVs+NGnEmIeQj6ro8pa/6u7zo5++vUFcaeMmStgPcNPOuBuot71ep3uNe2pn7zSdhDIEvS6nchbDuVeA9r641AQ6jKIFW2j3SZC/gc3XNEpKLyRRFuJ6SsxGBbuh4e2FTdedA7EBRKoEIHQmrSUmK8Qj8JZCQ2u8ImZsFUErJjXPu8Q9C+v+IdY0HcT8hjspQX95humRnecuzwh2rM646zX4y4/eVjmkS8GEiCBZhEoK+g/87VnUrNujYaMFex6YD8MCdYFEW8wZXYdOa+IfInFSCLbGZNA3QiE1qQU83WrAcxvpQnYQa3oyHRAJ3THwgVO1xqZpUG+fgjB/7s1YwuLeBH3LjGfJeRtp6nzymUSIIF6E4Cgt9NNSjth4xkTvxN9Ys5I56NSoVzvrM88DB4I2t3vklnL44/s4UN7e3bvSUBHmykiXuJEAv4hgRoSoJgvWWihwZXMBndrOAFrhZKOS1+2az5lbYXHMl4p77l9TCFLvO2U8V8L+iwhH6qz1tfGZRIggeoREFGvPyoFH3r80Fb87Lk9HREv42gQh2gjXGJ86KaHnedzGResb72rTa0eceaIBPIJhNaktMzn8+ZWEvAiYK1QsCRZ67ydSxlTsb2+/vSEWw3cbFwiHevgbgO3m+9cdGNmGhH0WUKefvJexcrEJNB4Aq6vw4YS9PaNJSzw+qEByy4h73oQEJ/7xhcIL7DRBCjmSxZvaHAls8HdWkDAdlywJGlBb63wZ68Yju5cMS0h5tddeXVKqMOqduDn3+2kc6WxDwDwf7WdJoV8CyohL5EEShBwDZBH+zHaNsPOaAMjx21XDHXapqJCHvtB4DOQQN0JhNaktMzXvUYw/5Uj4LLOoxOCRenwa3d2xLiI+h3XXhD7hOp55q0oh5BHwMwO2M9llYdvrP2C47zxJ748K4J+tJ1y5WAzQyRAAkEJZAn6z658sZTbDQbYY19Y49EO6h8Gu752/8pE/iHWrbui7EOrfAIV/9SYAMV8ycILDa5kNrhbSwhkdUbwhRcRj1gGu6KzwoBXuNe4LO53bjoxDawV+fo/Os1lw79IWfTFOn/lD3a1hD4vkwRIYDQEsgQ9jAIQ5nDJ6RaQBmnFkHDSvHXOb22IUMcbTFl2xXoWnG7n5nYSqDqB0JqUlvmqlzjzV1sCLkGPeZK1mMcHo3THBbFvxTy+zogOEVZ2Ld71sqRBOsxKobfhwzAhBrLVtiCYcRIgAW8CYlEXMW5jCHUYCPCDcEcbgx/e/tm08r+boNdtoV6mkPcuPu5QcQIU8yULKDS4ktngbi0jAEGvLU744IkW87DES6eFdLu2v5BylRk3bUPcOWLaOC3S9bKeUg7iXW/TM9u0DD8vlwRIYBQEIOjzrPQi0ovGeAB4/qU3u379VdpExGhDGUigaQRCa1Ja5ptWQ3g9lSMgPqCwLrk+FvXe8vGJDksLcSxrof7fv/ZAQqhju7bKo1O1Yl787SsHhhkiARKoBQHrMlNUvEs6iHj7dhDtop0sQES8nTSgFpCYSRLwIEAx7wFLJw0NTh+byyRQlAA6MPk4lFjoMVWlDnYQ6xUrt3deW2MKS0xLqQW/+MSj40SnuWzhTxLbaZnXdLlMAiRQhgCs9BD1eW40It4ldol417nRLmLiAPwYSKANBEJrUlrm21BreI2VIuD6aNSR3Xd28qg/7ALRjllq0JG++exFHRedX911duxbf919P+74qiINAsS7FvvYn4EESIAEQhEQYS8+8xD4+OE/LPAQ/QwkQALZBCjms9nkbgkNLvdk3EgCOQQwvaT9cBSs9P+xc2F07IOXU2IclnprzZf09jT40qMW8lh+/Znf2GT8TwIkQAIkQAIkMCACoTUpLfMDKkiett0EZL54cbXRMazuVpDDtUangbiH8LfBWvVxHAYSIAESIAESIIHqEKCYL1kWocGVzAZ3I4EOgTxB7/oolAh6l5CHRd4l5GmV7+DmAgmQAAmQAAlUgkBoTUrLfCWKlZloKwEIepcLze/WjE1Z52Flv+Pc5dG/fHtD9LtX34sg4BHDJ95a8vEf7jkMJEACJEACJEAC1SJAMV+yPEKDK5kN7kYCKQIQ9BgUa0X9juXnO0W6S7jbdRDyEPoMJEACJEACJEAC1SIQWpPSMl+t8mVuWk4Awh6+8BD3mOHmtR885y3oKeRbXol4+SRAAiRAApUmQDFfsnhCgyuZDe5GAt4EsvzhrTUe/+Fyg/QMJEACJEACJEAC1SQQWpPSMl/NcmauSCBFACIdc8jrga6wwuM/RXwKF1eQAAmQAAmQQCUJUMyXLJbQ4Epmg7uRAAmQAAmQAAmQAAm0mEBoTUrLfIsrEy+dBEiABEiABEiABEigvwQo5kvyDg2uZDa4GwmQAAmQAAmQAAmQQIsJhNaktMy3uDLx0kmABEiABEiABEiABPpLgGK+JO/Q4Epmg7uRAAmQAAmQAAmQAAm0mEBoTUrLfIsrEy+dBEiABEiABEiABEigvwQo5kvyDg2uZDa4GwmQAAmQAAmQAAmQQIsJhNaktMy3uDLx0kmABEiABEgDRGBrAAAPzklEQVSABEiABPpLgGK+JO/Q4Epmg7uRAAmQAAmQAAmQAAm0mEBoTUrLfIsrEy+dBEiABEiABEiABEigvwQo5kvyDg2uZDa4GwmQAAmQAAmQAAmQQIsJhNaktMy3uDLx0kmABEiABEiABEiABPpLgGK+JO/Q4Epmg7uRAAmQAAmQAAmQAAm0mEBoTUrLfIsrEy+dBEiABEiABEiABEigvwQo5kvyDg2uZDa4GwmQAAmQAAmQAAmQQIsJhNaktMy3uDLx0kmABEiABEiABEiABPpLgGK+JO/Q4Epmg7uRAAmQAAmQAAmQAAm0mEBoTUrLfIsrEy+dBEiABEiABEiABEigvwQo5kvyDg2uZDa4GwmQAAmQAAmQAAmQQIsJhNaktMy3uDLx0kmABEiABEiABEiABPpLgGK+JO/Q4Epmg7uRAAmQAAmQAAmQAAm0mEBoTUrLfIsrEy+dBEiABEiABEiABEigvwQqI+aPHTsWffzxx6O6+hDHKJqB0OCKnpfpSIAESIAESIAESIAESEAIhNak3pb54eHhaPz48REycsopp0TTpk2Ldu3aJfkrFI/mGL/85S/jcy9atKjQuSRRaHBy3LbG5Bm+5MmUTMMTCH9E1tOwTMkzLE8cjUzJNDyBsEcMXUe9xPySJUvim2RoaChau3ZttGrVqmjcuHHR2LFjoz179hS60tEc4/Dhw9HEiRMp5guR7m2i0BWxt7mtx9HJNHw5kSmZhicQ9oiso2F54mhkSqbhCYQ9Yug6WljM79y5M75BZsyYkbgirIeFfurUqYn1rj+jPcaCBQviPAACLfMuwv1bF7oi9i/n1T0TmYYvGzIl0/AEwh6RdTQsTxyNTMk0PIGwRwxdRwuLebGov/rqq6krmjt3bnzz7N27N7VNrxjNMTZv3hyfY+HChXFMMa/J9n85dEXs/xVU74xkGr5MyJRMwxMIe0TW0bA8cTQyJdPwBMIeMXQdLSzmJ02aFJ166qnOQa/r1q2Lb54NGzbkXm3ZYxw4cCA6/fTTo+uuuy568cUXKeZzKfdnY+iK2J9cV/ssZBq+fMiUTMMTCHtE1tGwPHE0MiXT8ATCHjF0HS0k5jFrDVxp4K/uCi+88EJ88yxdutS1OV43mmNMnz49OvPMM6ODBw9SzGcS7u+G0BWxv7mv5tnINHy5kCmZhicQ9oiso2F54mhkSqbhCYQ9Yug6WkjMHzlyJL45Zs6c6byaHTt2xNvhApMVyh7j4Ycfjo+9ffv2+NCjscwDHn9kwDrAOsA6wDrAOsA6wDrAOjDIOpCll8usLyTmP/roo1gEz5o1y3kOEdjz5893bsfKMsfADDlw7Vm2bFnnuHIuX5/5zgG4QAIkQAIkQAIkQAIkQAINIdAR8/BLxyBT+8N6sapniXmxzGO2mazgewx8UOr888+PJk+eHB09erRzWIr5DgoukAAJkAAJkAAJkAAJtJxAR8xv2bLF6YKC9fB3x6uIKVOmOHFt3bo13t7NZ97nGN/61rfiY95zzz3Rtm3bOj98cArHwRSZWO/7wSrnBXAlCZAACZAACZAACZAACdSQQEfM79u3L8JsNPaH9QhnnXVWNGbMGOclbtq0KRbY+JBUXvA5hkx32c2fKc+1Jy8v3EYCJEACJEACJEACJEACdSfQEfPdLgSiGcLaNZe8zP2Oj0LlBZ9jvPLKKxEeEuxPLPbTpk2Lt7nmvc/LA7eRAAmQAAmQAAmQAAmQQFMIFBbz4kqzePHixLXv378/GjduXOzbntjw50GvGPgqocwxZF+J6TMvJBiTAAmQAAmQAAmQAAm0nUBhMQ9QmO8d1nlY4iHMN27cGE2YMCFeB/91HTCAVVxk9HqfY+j9ZJliXkgwJgESIAESIAESIAESaDsBLzF/6NChCDPWiEhHDD/4kZGRFMcsMe9zjNRBo6j0R6Ncx+I6EiABEiABEiABEiABEqgzAS8xLxd6+PDhWFTv3r1bVnnHIY7hfVLuQAIkQAIkQAIkQAIkQAINIlBKzDfo+nkpJEACJEACJEACJEACJFBbAhTztS06ZpwESIAESIAESIAESKDtBCjm214DeP0kQAIkQAIkQAIkQAK1JUAxX9uiY8ZJgARIgARIgARIgATaTqAVYh4z63z88cdtL+u+XD9ZpzGj7h0/fjy9wazxZeeb3pyutn+L8vS9wLbyRN0sUj/B05eRb3rfMqtqeh+mvtfQVqY+1+2Ttky99i2zKqb3ZeRzDb08tk8+qpzWl1G39I0W88PDw9H48ePjqTRPOeWUCF+N3bVrV5XLtxJ527FjR3TllVdm/o4ePZrKJ1mnkHRWzJo1K2bZWWEWfNn5pjenq/3fPJ6su8WK94MPPoiWLl0ajR07tjPV8Be/+MXokUcecR7At875pneetGYrfZiynhYr3IMHDybq6amnnhrNnj07evvtt50H8K13vumdJ63RSh+erKPlCvaXv/xl3KYuWrTIeQDfOlc0fWPF/JIlS2KgQ0ND0dq1a6NVq1bFX6pF57Vnzx4nZK48QQCdPL4h8PnPf97501/1xR5knV1zbr311pglHo5cwZedb3rXOeu8rhtP1t3upfvhhx92PvaHB6Mnnngiuueee6IpU6bEdRV1TAffOuebXp+rrsu+TFlPu5c0pq+ePHlyXCfnzZsXPf3009Ftt90W9+Pom2w/7lvvfNN3z3G1U/jyZB31L08wnjhxYlxnXWLet875pG+kmN+5c2cMc8aMGYnSwHpY6KdOnZpYzz9JAuAGC0gR1ySyTrKTf7ipr7vuurge4sHIJeZ92fmml7w0IS7CE9fJutu9tG+55Za4Xt53332JxHhI//KXvxxve+ONN+JtvnXON30iAzX+48MUl8l62r2w77777rgu3nXXXYnE8hV4PIhK8K13vunlPHWOfXjiOllH/Utbf1TVinnfOuebvpFiXp5mXn311VRpzJ07N24g9u7dm9rGFScIjBkzJrrkkksK4SDrNCZ8ERlfRoaIxw2dJeZ92fmmT+esnmuK8sTVse52L+MJEybEnFwP6xs3bozrKyz1CL51zjd999zWI4UPU1wR62n3cp0+fXpsfLNvgrHnuHHjYhcxOYpvvfNNL+epc+zDE9fJOupX2ps3b47bzoULF3b6fn0E3zrnm76RYn7SpEmZluV169bFoDds2KA5c/nPBN59992Yz+LFiwsxIes0Jjwwwv/4hRdeiDdmiXlfdr7p0zmr55qiPFl3i5Uv6iU6HlfYtGlTfP+vXr063uxb53zTu/JQx3U+TFlPi5cwBv3ZgHV4cwyDiQTfeuebXs5T97goT9ZRv5I+cOBAdPrpp8dv4+XNkbXM+9Y53/SNE/OwNsGVBn5LroBGF+IK/mAMaQKwgoIPXm1C0KOCYpzB5ZdfnhIAZJ3mhzVvvfVWwkXJJeZ92fmmd+esnmuL8MSVse6OvnzhDob6un379rgO+7Slba6jeeQ1U9bTPFLdt8FKL287H3jggXgH33rnm757ruqbwsUTV8O21K9M8dbjzDPPjDDA2CXmfeucb3rktnFi/siRI3FnNHPmTGdpYIQ2Oiu8CmFIE/jWt74V8wEjDD7CwCN0RujUsQ4DiSWQtZDIj8HN+sz7svNNn5+jem918cQVse6OrlzFxebCCy+MD+Rb53zTjy639djbMkWuWU/9yw5jONCnw/UDfZEe7+Fb73zT++e2+nvk8WQd9Su/hx9+ONZGMIAguMS8b53zTY/zNk7M40kTnb0eHKOLRkDPnz9fr+bynwmAC/iJ1UPAYOYAPHlim4xFIGuhkx+7xKcvO9/0+Tmq91YXT1wR6275csUbS7gu4E0cXrEj+NY53/Tlc1uPPV1MkXPWU//y27ZtWwR3Owh6iHm42Dz33HPxgXzrnW96/9xWf488nsg962ixMoQuQru5bNmyzg6iMbWbjW+d802PkzdOzMsTTZaYF8s8Rh0zuAm4/OqQElPYQUjhRkcgazc/u9YlPn3Z+aa3eWjSfxdPuT7WXSFRPMb4ITDFNznefPPNzo6+dc43fedEDVzIYiqXynoqJPxjTF4hhqXdu3d790Osp0nmlqdsZR0VEu4YfM4///zYg0F/e8cl5n3rnG965LBxYh6+RuiYMGeyK2zdujXeTp95F538dTIoRma6Iet8XrLVJT592fmml3M3MXbx7HadrLtuQitXrozbw3POOSf1IR7fOueb3p2j+q/NY9rt6lhPuxE6sf3xxx+P6+03vvGNeGyHT5/PeppmrHmmtybXsI6e4CHucpj5C2865IePPKE+YmpPrMOHSn3rnG965KhxYh4XhVdw8K1zBZmtAR+SYnATQEVyBYzYRiXFl3QlkLWQyI6zxKcvO9/02Tmq95Ysnrgq1t1iZXv8+PH4S5pgedlll0X46JEr+NY53/Suc9Z1XVGmuD7W0+6lDEboc1wBIgl1F643CL71zje9Kw91W+fDE9fGOppfwqh7qIPdfuLJ4FvnfNM3UsyLv5drLnmZAxQT8jMkCeC1Efy/MIevK8g8qpj/VAJZC4nsGDe7HQCL1L7sfNNn56jeW1w8WXf9yhRuiOA4e/bsSL8itkfxrXO+6e356vy/CFPW02IlDE7wjYc7jSs8++yzcf2VKZR9651velce6rTOhyfraLGSfeWVVyIYh+1PLPYwemKbjDH0rXO+6Rsp5sWVRm50KZr9+/fHQhWztDC4CaACopPHp7N1gA+X/ToktpO1puRedonPMuzI+gTfLJ6su+76Z9fKa+CscUU6vW+d802vz1XnZR+mrKfFSlqm9IQg0gEPn9IXQVAh+NY73/T6/HVd9uHJOlq+lF0+8/2oo40U8wCHeT/R6cMSjxsXU4ThK31Yh1d0DG4C8O/CvPKw0OPzz2D3ox/9KMJ0dWB36623pnYk6xSSxIos8YlEvux80ycy0pA/WTxZd7sXMOZBhgsiGA4NDcWzfkHU29+aNWs6B/Otc77pOyeq6YIvU9bTYgWNmUI+//nPx/VV/JJ1X2SNdb71zjd9sVxXN5UPT9bR8uWYJeZxRN8655O+sWL+0KFDEWasQaclP/gg4WMIDPkEMKPFxRdf3OEGfpjp4pFHHnHuSNZOLJ2V4Odys0ECX3a+6TuZaNBCHk/W3fyC3rJlS+K+lrbRxnqCAN8655s+P8fV31qGKetpsXKFqLR90WmnnRbhTYgNvvXON709Xx3/+/BkHS1Xwnli3rfO+aRvrJiXYjh8+HA8iT+msGLwI4BBcaiYeKIvEsi6CCV3Gl92vundZ23uWtbd8GXrW+d804fPcfWPyHparIz27dsXf5UYYjRrYKYcybfe+aaX89Q59uHJOhq+pH3rXJH0jRfz4YuBRyQBEiABEiABEiABEiCBahCgmK9GOTAXJEACJEACJEACJEACJOBN4P8DVqQ1Uc3szt0AAAAASUVORK5CYII=;" vertex="1" parent="1">
                    <mxGeometry x="460" y="130" width="755" height="577" as="geometry"/>
                </mxCell>
            </root>
        </mxGraphModel>
    </diagram>
</mxfile>